<svg width="32" height="32" viewBox="0 0 32 32" fill="none" xmlns="http://www.w3.org/2000/svg">
<circle cx="16" cy="16" r="15.5" fill="#F9E9E8" stroke="#FECCBE"/>
<mask id="mask0_1411_713" style="mask-type:alpha" maskUnits="userSpaceOnUse" x="1" y="1" width="30" height="30">
<circle cx="16" cy="16" r="15" fill="#D9D9D9"/>
</mask>
<g mask="url(#mask0_1411_713)">
<path d="M12.3506 8.34032C12.3506 8.34032 9.49132 21.0138 9.64243 26.9633C9.76787 32.0572 2.07986 32.6129 2.2853 27.2191C2.49567 21.7072 3.74111 15.2381 6.31794 10.3238C7.1545 8.73194 8.41279 6.78166 10.3763 6.49746C10.3723 6.50039 13.0084 5.38804 12.3506 8.34032Z" fill="#FEAB93"/>
<path d="M9.64005 24.3521C9.64005 24.3521 8.61288 39.01 10.5201 44.6705C12.4273 50.3309 12.8687 54.3945 10.2238 54.6846C7.57879 54.9746 1.12339 53.5244 -1.95813 56.2813C-5.03966 59.0383 -5.33398 62.3773 -5.33398 62.3773H64.5317C64.5317 62.3773 61.5914 39.1556 41.9269 37.7043L30.3317 36.2492L29.1584 16.5217C28.9677 13.3321 27.9149 9.98722 26.14 7.42167C24.2259 4.65201 20.6822 2.83161 17.2718 3.06502C17.2718 3.06502 9.19561 2.8697 7.87509 10.4189C7.51112 12.6046 6.75734 14.709 5.64888 16.634C3.81281 19.889 5.55901 24.3521 9.64005 24.3521Z" fill="white"/>
<path d="M10.5649 17.2698C10.5649 17.2698 9.4785 17.5627 9.91999 18.428C10.3615 19.2933 11.5348 19.5892 11.9753 19.5892C12.4158 19.5892 13.9882 19.1361 14.4445 18.2014C14.9008 17.2668 13.4124 16.8371 10.5649 17.2698Z" fill="#FEAB93"/>
<path d="M24.832 8.34051C24.832 8.34051 27.6962 21.0139 27.5441 26.9644C27.392 32.9149 34.7363 31.8992 34.8835 28.7057C35.0306 25.5122 32.8281 7.37074 26.8103 6.50058C26.8103 6.50058 24.1742 5.38822 24.832 8.34051Z" fill="#FEAB93"/>
<path d="M17.6014 11.8466C17.6014 11.8466 17.077 11.9101 16.9012 13.3779C16.8409 13.8818 16.753 14.5674 17.0227 14.9571C17.3812 15.4766 17.7842 15.001 17.9116 14.3975C18.0113 13.9483 18.1891 11.7773 17.6014 11.8466Z" fill="#FEAB93"/>
<path d="M11.8783 11.5566C11.8783 11.5566 11.3538 11.6201 11.179 13.0879C11.1187 13.5919 11.0298 14.2774 11.2995 14.6671C11.659 15.1857 12.062 14.711 12.1884 14.1065C12.2881 13.6573 12.4659 11.4863 11.8783 11.5566Z" fill="#FEAB93"/>
<path d="M16.9359 21.6437C16.5325 21.6458 16.1296 21.6131 15.7319 21.5461C15.6287 21.5278 15.5371 21.4698 15.4772 21.3847C15.4172 21.2996 15.394 21.1945 15.4124 21.0924C15.4309 20.9904 15.4896 20.8998 15.5756 20.8405C15.6617 20.7813 15.768 20.7583 15.8712 20.7765C15.9196 20.7853 19.6115 21.3986 20.1122 19.0489C20.1209 18.9968 20.1402 18.9471 20.1689 18.9026C20.1976 18.8581 20.2351 18.8198 20.2791 18.7901C20.3231 18.7603 20.3728 18.7397 20.4252 18.7294C20.4775 18.7191 20.5314 18.7194 20.5836 18.7303C20.6358 18.7412 20.6852 18.7625 20.7289 18.7928C20.7726 18.8231 20.8096 18.8618 20.8377 18.9066C20.8659 18.9514 20.8845 19.0014 20.8926 19.0536C20.9006 19.1057 20.8979 19.159 20.8846 19.21C20.4747 21.1369 18.5142 21.6437 16.9359 21.6437Z" fill="#FEAB93"/>
</g>
</svg>
