<svg width="34" height="34" viewBox="0 0 34 34" fill="none" xmlns="http://www.w3.org/2000/svg">
<path d="M2 14.43H26.9V18.43C26.8894 21.5764 25.63 24.5899 23.3986 26.8081C21.1672 29.0264 18.1464 30.268 15 30.26H13.87C10.7219 30.26 7.7027 29.0094 5.47664 26.7834C3.25059 24.5573 2 21.5381 2 18.39V14.39V14.43Z" stroke="white" stroke-width="2" stroke-linecap="round" stroke-linejoin="round"/>
<path d="M27.65 16.85H28.74C29.8469 16.8711 30.9002 17.3304 31.6689 18.1271C32.4376 18.9239 32.8587 19.9931 32.84 21.1V21.1C32.8587 22.207 32.4376 23.2761 31.6689 24.0729C30.9002 24.8697 29.8469 25.329 28.74 25.35H25.35" stroke="white" stroke-width="2" stroke-linecap="round" stroke-linejoin="round"/>
<path d="M7.91998 2C8.28292 2.28821 8.56556 2.665 8.7407 3.09409C8.91584 3.52319 8.97758 3.99013 8.91998 4.45C8.75998 5.26 8.26998 5.51 7.91998 6.14C7.65668 6.67849 7.56072 7.28351 7.6445 7.87704C7.72827 8.47058 7.98793 9.02542 8.38998 9.47" stroke="white" stroke-width="2" stroke-linecap="round" stroke-linejoin="round"/>
<path d="M13.77 2C14.1329 2.28821 14.4156 2.665 14.5907 3.09409C14.7658 3.52319 14.8276 3.99013 14.77 4.45C14.61 5.26 14.12 5.51 13.77 6.14C13.5159 6.6806 13.425 7.28359 13.5085 7.87508C13.5919 8.46656 13.8462 9.02085 14.24 9.47" stroke="white" stroke-width="2" stroke-linecap="round" stroke-linejoin="round"/>
<path d="M19.65 2C20.0115 2.28948 20.293 2.66644 20.468 3.09519C20.643 3.52394 20.7057 3.99027 20.65 4.45C20.48 5.26 19.99 5.51 19.65 6.14C19.3946 6.67966 19.302 7.2821 19.3837 7.87355C19.4654 8.465 19.7178 9.0198 20.11 9.47" stroke="white" stroke-width="2" stroke-linecap="round" stroke-linejoin="round"/>
</svg>
