<svg width="125" height="122" viewBox="-7 -5.5 100 90" fill="none" xmlns="http://www.w3.org/2000/svg">
<g clip-path="url(#clip0_1164_3154)">
<path d="M30.5918 61.6852C27.671 62.8629 25.0011 62.3268 25.0011 62.3268C22.6422 61.9787 20.3376 61.1297 18.6385 59.4644C15.6529 56.5241 14.6818 51.2576 16.8944 46.3931C18.6867 42.4602 22.0229 39.5455 25.5904 37.7274C29.1579 35.9093 33.3369 34.951 37.1344 35.0314C40.9219 35.1145 44.5177 36.2275 47.3058 38.5214C48.137 39.2041 48.896 39.9972 49.5704 40.8934C52.2452 44.4738 53.6437 49.2182 53.8579 54.0222C53.9094 55.125 53.8913 56.2466 53.792 57.3636C53.5116 60.6402 52.4522 64.0161 50.3614 66.7798C47.15 71.0339 42.0932 72.6258 38.1276 71.3247C35.8808 70.5936 34.0617 68.9181 32.6573 66.9752C32.6573 66.9752 30.9354 64.8405 30.5991 61.6725" fill="black"/>
<path d="M31.0214 60.9702C31.0214 60.9702 37.3465 59.4346 38.9215 55.3256C40.4965 51.2166 33.9809 47.6745 31.6344 51.7098C29.2815 55.7414 31.0214 60.9702 31.0214 60.9702Z" fill="black"/>
<path d="M26.2158 34.6425C30.0949 33.5894 32.2263 28.9037 30.9764 24.1767C29.7265 19.4497 25.5687 16.4715 21.6896 17.5246C17.8106 18.5777 15.6792 23.2634 16.9291 27.9904C18.179 32.7174 22.3368 35.6956 26.2158 34.6425Z" fill="black"/>
<path d="M40.8319 28.7674C45.1475 29.5971 49.486 25.9946 50.5222 20.7208C51.5584 15.4471 48.8999 10.4993 44.5843 9.66951C40.2687 8.83976 35.9302 12.4423 34.894 17.7161C33.8578 22.9898 36.5163 27.9376 40.8319 28.7674Z" fill="black"/>
<path d="M66.5213 35.968C70.5704 32.4337 71.5211 26.8752 68.6447 23.5526C65.7683 20.2301 60.1541 20.4017 56.105 23.9359C52.0559 27.4702 51.1053 33.0287 53.9817 36.3513C56.858 39.6738 62.4723 39.5022 66.5213 35.968Z" fill="black"/>
<path d="M66.5991 56.6754C71.3177 55.3944 74.3099 51.2057 73.2824 47.3198C72.2549 43.4338 67.5968 41.3222 62.8782 42.6032C58.1596 43.8843 55.1673 48.073 56.1948 51.9589C57.2223 55.8448 61.8805 57.9565 66.5991 56.6754Z" fill="black"/>
</g>
<defs>
<clipPath id="clip0_1164_3154">
<rect width="63.2495" height="57.186" fill="white" transform="translate(29.4081 0.485962) rotate(30)"/>
</clipPath>
</defs>
</svg>
