<svg width="124" height="102" viewBox="0 0 124 102" fill="none" xmlns="http://www.w3.org/2000/svg">
<g clip-path="url(#clip0_1164_3053)">
<path d="M100.55 21.13H7.45C3.33548 21.13 0 24.4655 0 28.58V86.21C0 90.3245 3.33548 93.66 7.45 93.66H100.55C104.665 93.66 108 90.3245 108 86.21V28.58C108 24.4655 104.665 21.13 100.55 21.13Z" fill="#4F65FF"/>
<path d="M53.98 59.96C52.54 59.96 51.09 59.55 49.83 58.72L9.05 32.01C8.7 31.78 8.61 31.32 8.83 30.97C9.06 30.62 9.52 30.53 9.87 30.75L50.66 57.46C52.69 58.79 55.3 58.78 57.33 57.45L98.13 30.49C98.48 30.26 98.94 30.36 99.17 30.7C99.4 31.04 99.3 31.51 98.96 31.74L58.16 58.7C56.89 59.54 55.44 59.95 53.99 59.95L53.98 59.96Z" fill="#1C2D5E"/>
<path d="M101.95 101.77C113.868 101.77 123.53 92.1083 123.53 80.19C123.53 68.2717 113.868 58.61 101.95 58.61C90.0317 58.61 80.37 68.2717 80.37 80.19C80.37 92.1083 90.0317 101.77 101.95 101.77Z" fill="#FFDA40"/>
<path d="M99.52 88.53C99.01 88.53 98.5 88.33 98.11 87.94L88.62 78.45C87.84 77.67 87.84 76.4 88.62 75.62C89.4 74.84 90.67 74.84 91.45 75.62L99.52 83.69L111.76 71.45C112.54 70.67 113.81 70.67 114.59 71.45C115.37 72.23 115.37 73.5 114.59 74.28L100.94 87.93C100.55 88.32 100.04 88.52 99.53 88.52L99.52 88.53Z" fill="white"/>
<path d="M18.36 35.86L18.69 2.95C18.71 1.32 20.23 0 22.11 0H88.3C90.19 0 91.72 1.33 91.72 2.97V34.8C91.72 35.8 91.14 36.74 90.18 37.29L58.09 57.65C57.86 57.78 57.61 57.89 57.35 57.97L55.23 58.62C54.52 58.84 53.75 58.85 53.04 58.65L50.7 57.99C50.4 57.91 50.12 57.79 49.86 57.64L19.9 38.37C18.94 37.81 18.36 36.87 18.37 35.86H18.36Z" fill="#1C2D5E"/>
<path d="M71.35 21.12H37.49C37.08 21.12 36.74 20.78 36.74 20.37C36.74 19.96 37.08 19.62 37.49 19.62H71.35C71.76 19.62 72.1 19.96 72.1 20.37C72.1 20.78 71.76 21.12 71.35 21.12Z" fill="white"/>
<path d="M71.35 30.24H37.49C37.08 30.24 36.74 29.9 36.74 29.49C36.74 29.08 37.08 28.74 37.49 28.74H71.35C71.76 28.74 72.1 29.08 72.1 29.49C72.1 29.9 71.76 30.24 71.35 30.24Z" fill="white"/>
</g>
<defs>
<clipPath id="clip0_1164_3053">
<rect width="123.53" height="101.77" fill="white"/>
</clipPath>
</defs>
</svg>
