<svg width="117" height="117" viewBox="0 0 117 117" fill="none" xmlns="http://www.w3.org/2000/svg">
<g clip-path="url(#clip0_1164_3065)">
<path d="M106.11 91.25C92.96 72.93 67.13 66.74 45.78 70.02C35.2 71.65 24.75 75.56 16.74 82.66C8.73002 89.76 3.44002 100.32 4.16002 111C4.29002 112.89 4.75002 115 6.37002 115.98C7.39002 116.6 8.65002 116.61 9.84002 116.61L104.96 116.54C106.51 116.54 108.26 116.45 109.3 115.3C109.97 114.55 110.18 113.5 110.32 112.5C111.34 105.14 109.6 97.74 106.11 91.25Z" fill="#FA5A30"/>
<path d="M45.79 62.95L42.48 73.01C42.48 73.01 54.85 86.59 69.74 73.91L66.25 62.92L45.79 62.95Z" fill="#F78D70"/>
<path d="M84.4358 42.2617C84.5341 38.2091 81.5166 34.8487 77.6959 34.756C73.8752 34.6633 70.6982 37.8734 70.5999 41.9259C70.5015 45.9785 73.5191 49.3389 77.3398 49.4317C81.1605 49.5244 84.3375 46.3143 84.4358 42.2617Z" fill="#F78D70"/>
<path d="M35.904 49.1063C39.7251 49.0362 42.7626 45.6938 42.6883 41.6407C42.614 37.5876 39.4561 34.3587 35.635 34.4287C31.8138 34.4988 28.7763 37.8412 28.8506 41.8943C28.9249 45.9474 32.0828 49.1763 35.904 49.1063Z" fill="#F78D70"/>
<path d="M33.92 37.92C33.66 53.59 43.9 66.49 55.44 66.7C66.98 66.91 77.63 54.39 77.89 38.72C77.26 38.54 76.85 18.62 76.4 18.24L35.46 18.7C34.65 18.86 33.92 37.92 33.92 37.92Z" fill="#F78D70"/>
<path d="M81.26 13.04C80.27 7.37002 74.82 8.97002 74.82 8.97002C76.24 2.61002 68.79 0.63002 64.42 0.18002C58.39 -0.42998 52.22 0.50002 46.58 2.82002C39.58 5.70002 31.24 11.15 31.23 20.04C31.23 20.04 30.35 25.55 33.93 37.92H35.31C37.47 37.51 41.37 34.91 41 21.44C41 21.44 49.2 29.11 57.19 23.92C65.18 18.73 75.23 22.26 73.69 30.56C73.69 30.56 73.65 35.61 76.28 37.84H78.13C81.49 31.68 82.24 18.7 81.25 13.04H81.26Z" fill="#1C2D5E"/>
<path d="M65.1308 40.4613C65.1547 38.9261 64.4353 37.6702 63.5242 37.656C62.613 37.6418 61.8551 38.8749 61.8312 40.41C61.8074 41.9452 62.5267 43.2012 63.4378 43.2153C64.349 43.2295 65.107 41.9965 65.1308 40.4613Z" fill="#1C2D5E"/>
<path d="M48.5535 40.1546C48.5773 38.6195 47.858 37.3635 46.9469 37.3494C46.0357 37.3352 45.2777 38.5682 45.2539 40.1034C45.23 41.6386 45.9493 42.8945 46.8605 42.9087C47.7717 42.9228 48.5296 41.6898 48.5535 40.1546Z" fill="#1C2D5E"/>
<path d="M41.58 32.38C41.58 32.38 45.95 29.94 50.73 31.54" stroke="#1C2D5E" stroke-width="1.5" stroke-miterlimit="10" stroke-linecap="round"/>
<path d="M61 32.05C61 32.05 65.65 30.28 70.17 32.57" stroke="#1C2D5E" stroke-width="1.5" stroke-miterlimit="10" stroke-linecap="round"/>
<path d="M52.13 34.34C52.13 34.34 53.23 40.42 52.63 47.72L52.13 34.34Z" fill="white"/>
<path d="M52.13 34.34C52.13 34.34 53.23 40.42 52.63 47.72" stroke="#FA5A30" stroke-width="1.5" stroke-miterlimit="10" stroke-linecap="round"/>
<path d="M50.48 53.86C50.48 53.86 56.69 56.25 62.97 54.09" stroke="#1C2D5E" stroke-width="1.5" stroke-miterlimit="10" stroke-linecap="round"/>
<path d="M53.94 58.51C53.94 58.51 56.08 60.22 58.47 59.16L53.94 58.51Z" fill="white"/>
<path d="M53.94 58.51C53.94 58.51 56.08 60.22 58.47 59.16" stroke="#FA5A30" stroke-width="1.5" stroke-miterlimit="10" stroke-linecap="round"/>
<path d="M45.79 62.95C45.79 62.95 49.35 67.58 55.44 66.7" stroke="#1C2D5E" stroke-width="1.5" stroke-miterlimit="10" stroke-linecap="round"/>
<path d="M110.11 114.87C108.8 114.87 107.5 114.33 106.56 113.27L98.64 104.29C96.91 102.33 97.1 99.34 99.06 97.61C101.02 95.88 104.01 96.0699 105.74 98.03L113.66 107.01C115.39 108.97 115.2 111.96 113.24 113.69C112.34 114.48 111.22 114.87 110.11 114.87Z" fill="#1C2D5E"/>
<path opacity="0.4" d="M90.3775 102.473C100.634 102.007 108.571 93.3154 108.105 83.059C107.639 72.8025 98.9473 64.8656 88.6909 65.3314C78.4345 65.7971 70.4976 74.4891 70.9634 84.7455C71.4291 95.002 80.1211 102.939 90.3775 102.473Z" fill="white"/>
<path d="M89.53 104.72C78.06 104.72 68.72 95.38 68.72 83.91C68.72 72.44 78.06 63.1 89.53 63.1C101 63.1 110.34 72.44 110.34 83.91C110.34 95.38 101 104.72 89.53 104.72ZM89.53 67.53C80.5 67.53 73.15 74.88 73.15 83.91C73.15 92.94 80.5 100.29 89.53 100.29C98.56 100.29 105.91 92.94 105.91 83.91C105.91 74.88 98.56 67.53 89.53 67.53Z" fill="#1C2D5E"/>
<path d="M101.87 109.74C101.87 109.74 111.28 102.4 111.29 102.39C111.31 102.37 113.68 105.16 113.91 105.45C114.79 106.57 115.6 107.82 115.95 109.22C116.56 111.73 115.35 114.44 112.9 115.4C107.72 117.44 104.88 113.14 101.87 109.74Z" fill="#4F65FF"/>
<path d="M0.75 60.15L15.58 71.69" stroke="#1C2D5E" stroke-width="1.5" stroke-miterlimit="10" stroke-linecap="round"/>
<path d="M12.66 48.48L20.52 60.56" stroke="#FFDA40" stroke-width="1.5" stroke-miterlimit="10" stroke-linecap="round"/>
<path d="M110.37 46.93L101.07 56.75" stroke="#FFDA40" stroke-width="1.5" stroke-miterlimit="10" stroke-linecap="round"/>
<path d="M95.78 44.55L90.78 56.15" stroke="#FA5A30" stroke-width="1.5" stroke-miterlimit="10" stroke-linecap="round"/>
</g>
<defs>
<clipPath id="clip0_1164_3065">
<rect width="116.1" height="116.62" fill="white"/>
</clipPath>
</defs>
</svg>
