<svg width="110" height="104" viewBox="0 0 110 104" fill="none" xmlns="http://www.w3.org/2000/svg">
<g clip-path="url(#clip0_1164_3125)">
<path d="M91.92 55.7C91.92 55.7 97.5 33.96 83.99 31.46C83.99 31.46 78.99 20.59 67.24 25.44C67.24 25.44 57.98 20.15 52.4 35.28C52.4 35.28 43.73 37.19 47.4 53.79C51.07 70.39 56.66 91.4 80.16 101.25C80.16 101.25 91.91 105.66 101.02 103.01C110.13 100.37 112.19 97.28 105.72 89.2C103.28 85.57 100.99 81.83 98.82 78.04C94.73 70.92 90.7 64.21 91.91 55.7H91.92Z" fill="#F78D70"/>
<path d="M68.52 65.35C75.5727 65.35 81.29 59.1447 81.29 51.49C81.29 43.8353 75.5727 37.63 68.52 37.63C61.4673 37.63 55.75 43.8353 55.75 51.49C55.75 59.1447 61.4673 65.35 68.52 65.35Z" fill="#FA5A30"/>
<path d="M61.95 34.94C63.629 34.94 64.99 33.5789 64.99 31.9C64.99 30.221 63.629 28.86 61.95 28.86C60.2711 28.86 58.91 30.221 58.91 31.9C58.91 33.5789 60.2711 34.94 61.95 34.94Z" fill="#FA5A30"/>
<path d="M73.41 35.43C75.0889 35.43 76.45 34.0689 76.45 32.39C76.45 30.711 75.0889 29.35 73.41 29.35C71.7311 29.35 70.37 30.711 70.37 32.39C70.37 34.0689 71.7311 35.43 73.41 35.43Z" fill="#FA5A30"/>
<path d="M84.53 44.7C86.2089 44.7 87.57 43.3389 87.57 41.66C87.57 39.9811 86.2089 38.62 84.53 38.62C82.851 38.62 81.49 39.9811 81.49 41.66C81.49 43.3389 82.851 44.7 84.53 44.7Z" fill="#FA5A30"/>
<path d="M33.3499 7.76003C33.3499 7.76003 24.93 3.55003 25.98 18.29C25.98 18.29 25.98 27.77 24.93 33.03C24.93 33.03 14.4 28.82 15.45 41.45C15.45 41.45 15.45 44.61 17.56 50.93C19.67 57.25 19.67 66.72 11.24 80.41C7.88995 85.87 -0.240048 90.61 -4.83114e-05 97.56C0.119952 101.02 2.04995 102.64 5.26995 103.25C9.88995 104.12 14.57 104.2 19.24 103.6C33.77 101.73 46.2899 93.24 53.07 80.19C53.54 79.29 53.98 78.37 54.4 77.44C54.4 77.44 66.0599 55.99 60.0299 21.61C60.0299 21.61 56.7999 8.24003 53.4199 11.18C53.4199 11.18 50.63 1.34003 44.16 5.30003C44.16 5.30003 38.1 -0.519973 33.34 7.75003L33.3499 7.76003Z" fill="#4F65FF"/>
<path d="M81.49 16.34C81.49 16.34 81.43 16.34 81.41 16.34C81 16.29 80.7 15.92 80.75 15.51L81.48 8.89999C81.52 8.48999 81.89 8.17999 82.31 8.23999C82.72 8.28999 83.02 8.65999 82.97 9.06999L82.24 15.68C82.2 16.06 81.87 16.35 81.5 16.35L81.49 16.34Z" fill="#4F65FF"/>
<path d="M13.62 0.75L18.46 5.31" stroke="#FA5A30" stroke-width="1.5" stroke-miterlimit="10" stroke-linecap="round"/>
<path d="M14.47 13.26C14.39 13.26 14.3 13.25 14.22 13.22L7.94999 11C7.55999 10.86 7.35999 10.43 7.48999 10.04C7.61999 9.65002 8.05999 9.45002 8.44999 9.58002L14.72 11.8C15.11 11.94 15.31 12.37 15.18 12.76C15.07 13.07 14.78 13.26 14.47 13.26V13.26Z" fill="#FA5A30"/>
<path d="M7.73998 23.48C7.42998 23.48 7.12998 23.28 7.02998 22.97C6.89998 22.58 7.10998 22.15 7.50998 22.02L13.83 19.93C14.22 19.8 14.65 20.01 14.78 20.41C14.91 20.8 14.7 21.23 14.3 21.36L7.97998 23.45C7.89998 23.48 7.81998 23.49 7.73998 23.49V23.48Z" fill="#FA5A30"/>
<path d="M88.5399 20.9C88.3899 20.9 88.2299 20.85 88.0999 20.76C87.7699 20.51 87.6899 20.05 87.9399 19.71L92.3499 13.69C92.5999 13.36 93.0599 13.28 93.3999 13.53C93.7299 13.78 93.8099 14.24 93.5599 14.58L89.1499 20.6C88.9999 20.8 88.7699 20.91 88.5399 20.91V20.9Z" fill="#4F65FF"/>
<path d="M93.98 25.74C93.64 25.74 93.33 25.5 93.25 25.16C93.16 24.76 93.41 24.35 93.82 24.26L101.61 22.5C102.02 22.41 102.42 22.66 102.51 23.07C102.6 23.47 102.35 23.88 101.94 23.97L94.15 25.73C94.09 25.74 94.04 25.75 93.98 25.75V25.74Z" fill="#4F65FF"/>
<path d="M31.6801 46.07C31.6801 46.07 31.6001 46.07 31.5601 46.07C31.1501 46 30.8701 45.62 30.9401 45.21C31.5401 41.52 32.4901 22.49 32.2101 17.65C31.9101 12.61 32.6801 8.79998 32.7101 8.63998C32.7901 8.22998 33.1901 7.96998 33.6001 8.05998C34.0101 8.13998 34.2701 8.53998 34.1801 8.93998C34.1801 8.97998 33.4201 12.73 33.7001 17.56C33.9901 22.45 33.0201 41.71 32.4201 45.44C32.3601 45.81 32.0401 46.07 31.6801 46.07V46.07Z" fill="#1C2D5E"/>
<path d="M40.7 46.26C40.7 46.26 40.61 46.26 40.56 46.25C40.15 46.17 39.89 45.78 39.96 45.37C40.66 41.69 42.5 28.19 41.91 19.51C41.31 10.79 43.27 6.74999 43.36 6.58999C43.55 6.21999 44 6.06999 44.37 6.24999C44.74 6.42999 44.89 6.87999 44.71 7.24999C44.71 7.24999 42.85 11.14 43.42 19.4C44.03 28.33 42.19 41.76 41.45 45.65C41.38 46.01 41.07 46.26 40.71 46.26H40.7Z" fill="#1C2D5E"/>
<path d="M50.1 43.72C50.04 43.72 49.99 43.72 49.93 43.7C49.53 43.61 49.27 43.2 49.37 42.8C50.56 37.65 50.71 26.73 50.53 21.05C50.33 14.77 52.19 12.42 52.27 12.32C52.53 12 53 11.95 53.33 12.21C53.65 12.47 53.7 12.94 53.44 13.26C53.4 13.32 51.86 15.41 52.04 20.99C52.23 26.74 52.07 37.84 50.85 43.12C50.77 43.47 50.46 43.7 50.12 43.7L50.1 43.72Z" fill="#1C2D5E"/>
<path d="M23.65 48.42C23.65 48.42 23.59 48.42 23.57 48.42C23.16 48.37 22.86 48 22.91 47.59L24.28 35.44C24.33 35.03 24.71 34.73 25.11 34.78C25.52 34.83 25.82 35.2 25.77 35.61L24.4 47.76C24.36 48.14 24.03 48.43 23.66 48.43L23.65 48.42Z" fill="#1C2D5E"/>
</g>
<defs>
<clipPath id="clip0_1164_3125">
<rect width="109.49" height="103.99" fill="white"/>
</clipPath>
</defs>
</svg>
