<svg width="99" height="104" viewBox="0 0 99 104" fill="none" xmlns="http://www.w3.org/2000/svg">
<g clip-path="url(#clip0_1164_3101)">
<path d="M0.499999 90.36L0.00999931 97.9C-0.170001 100.63 1.99 102.95 4.72 102.97L12.72 103.03C10.2 93.34 3.6 90.95 0.499999 90.36Z" fill="#1C2D5E"/>
<path d="M20.4 92.9L21.5 81.42L10.9 82.3L12.89 71.7L2.22 73.27C1.77 73.95 1.51 74.74 1.45 75.56L0.5 90.35C3.6 90.94 10.21 93.32 12.72 103.02L28.91 103.14C30.11 103.14 31.27 102.69 32.15 101.88L31.66 91.34L20.4 92.89V92.9Z" fill="#F78D70"/>
<path d="M89.45 45L58.74 14.29L2.76997 72.58C2.55997 72.8 2.37997 73.03 2.21997 73.28L12.89 71.71L10.9 82.31L21.5 81.43L20.4 92.91L31.66 91.36L32.15 101.9C32.15 101.9 32.25 101.82 32.3 101.78L89.46 45.01L89.45 45Z" fill="#FFDA40"/>
<path d="M12.8899 72.46C12.6999 72.46 12.5099 72.39 12.3699 72.25C12.0699 71.96 12.0699 71.49 12.3599 71.19L64.6299 17.65C64.9199 17.35 65.3899 17.35 65.6899 17.64C65.9899 17.93 65.9899 18.4 65.6999 18.7L13.4299 72.23C13.2799 72.38 13.0899 72.46 12.8899 72.46Z" fill="#FA5A30"/>
<path d="M21.5 82.17C21.31 82.17 21.12 82.1 20.97 81.95C20.68 81.66 20.67 81.18 20.97 80.89L73.66 27.84C73.9501 27.55 74.43 27.55 74.72 27.84C75.01 28.13 75.02 28.61 74.72 28.9L22.03 81.95C21.88 82.1 21.69 82.17 21.5 82.17Z" fill="#FA5A30"/>
<path d="M31.66 92.1C31.47 92.1 31.27 92.03 31.13 91.88C30.84 91.59 30.84 91.11 31.13 90.82L82.87 39.51C83.16 39.22 83.64 39.22 83.93 39.51C84.22 39.8 84.22 40.28 83.93 40.57L32.19 91.88C32.04 92.03 31.85 92.1 31.66 92.1Z" fill="#1C2D5E"/>
<path d="M97.19 37.32C99.06 35.46 99.06 32.44 97.2 30.58L73.04 6.40998C71.15 4.51998 68.09 4.55998 66.24 6.47998L61.66 11.25L92.2 42.27L97.19 37.32Z" fill="#4F65FF"/>
<path d="M61.66 11.25L58.74 14.29L89.45 45L92.2 42.27L61.66 11.25Z" fill="#FA5A30"/>
<path d="M18.6 15.45C18.6 15.45 26.8 15.13 27.85 5.26001C27.85 5.26001 28.69 15.3 35.21 15.14C35.21 15.14 29.38 16.09 27.43 26.49C27.43 26.49 26.8 16.56 18.6 15.46V15.45Z" fill="#4F65FF"/>
<path d="M14.7 31.39C14.7 31.39 19.49 31.21 20.1 25.43C20.1 25.43 20.59 31.29 24.4 31.2C24.4 31.2 20.99 31.75 19.86 37.83C19.86 37.83 19.49 32.03 14.7 31.38V31.39Z" fill="#FFDA40"/>
<path d="M46.56 4.2C47.7198 4.2 48.66 3.2598 48.66 2.1C48.66 0.940202 47.7198 0 46.56 0C45.4002 0 44.46 0.940202 44.46 2.1C44.46 3.2598 45.4002 4.2 46.56 4.2Z" fill="#FA5A30"/>
</g>
<defs>
<clipPath id="clip0_1164_3101">
<rect width="98.59" height="103.15" fill="white"/>
</clipPath>
</defs>
</svg>
