<svg width="57" height="20" viewBox="0 0 57 20" fill="none" xmlns="http://www.w3.org/2000/svg">
<path d="M15.6621 13.5508H10.6719V10.7207H14.3223V4.89648H5.73633V10.7207H9.38672V13.5508H4.45117V14.6309H15.6621V13.5508ZM6.99414 9.69531V5.93555H13.0508V9.69531H6.99414ZM21.0898 5.86719V5.73047H23.7832V4.67773H17.0293V5.73047H19.7773V5.86719C19.7705 7.47363 18.5811 8.97754 16.6738 9.55859L17.3301 10.584C18.7998 10.0986 19.8936 9.08691 20.4404 7.79492C21.001 8.99805 22.0811 9.92773 23.5098 10.3652L24.166 9.35352C22.2793 8.7998 21.0898 7.3916 21.0898 5.86719ZM18.6973 16.0117H26.709V11.1172H25.4238V12.4844H19.9688V11.1172H18.6973V16.0117ZM19.9688 14.959V13.5098H25.4238V14.959H19.9688ZM25.4102 10.543H26.709V3.91211H25.4102V10.543ZM34.8711 8.27344H33.5859V9.92773H28.6504V10.9941H39.8203V9.92773H34.8711V8.27344ZM29.2246 7.89062L29.6895 8.91602C31.8154 8.66992 33.5586 7.79492 34.2285 6.50293C34.8984 7.79492 36.6553 8.66992 38.7812 8.91602L39.2461 7.89062C37.0244 7.66504 35.2881 6.6875 35.1035 5.51172H38.8223V4.47266H29.6758V5.51172H33.3535C33.1758 6.69434 31.4395 7.66504 29.2246 7.89062ZM29.9766 14.0156C29.9766 15.3828 31.5625 16.1416 34.2285 16.1348C36.874 16.1416 38.4463 15.3828 38.4531 14.0156C38.4463 12.6416 36.874 11.8828 34.2285 11.8828C31.5625 11.8828 29.9766 12.6416 29.9766 14.0156ZM31.2891 14.0156C31.2822 13.2842 32.335 12.8877 34.2285 12.8809C36.0947 12.8877 37.1543 13.2842 37.1543 14.0156C37.1543 14.7471 36.0947 15.1504 34.2285 15.1504C32.335 15.1504 31.2822 14.7471 31.2891 14.0156ZM51.9609 13.6055H49.0215V11.4453H50.8809V10.3789H43.4023V8.60156H50.5938V4.77344H42.0898V5.83984H49.3086V7.54883H42.1172V11.4453H43.8125V13.6055H40.75V14.6992H51.9609V13.6055ZM45.0703 13.6055V11.4453H47.75V13.6055H45.0703Z" fill="#B8BBC0"/>
<rect x="0.5" y="0.5" width="56" height="19" rx="3.5" stroke="#B8BBC0"/>
</svg>
