<svg width="45" height="20" viewBox="0 0 45 20" fill="none" xmlns="http://www.w3.org/2000/svg">
<path d="M15.6621 14.6309H4.45117V13.5508H9.38672V10.7207H5.73633V4.89648H14.3223V10.7207H10.6719V13.5508H15.6621V14.6309ZM13.0508 9.69531V5.93555H6.99414V9.69531H13.0508ZM21.0898 5.86719C21.0898 6.37305 21.2152 6.8584 21.4658 7.32324C21.7165 7.78809 22.0742 8.19824 22.5391 8.55371C23.0039 8.90462 23.5462 9.17122 24.166 9.35352L23.5098 10.3652C22.8034 10.1465 22.1859 9.81608 21.6572 9.37402C21.1286 8.92741 20.723 8.40104 20.4404 7.79492C20.1624 8.44661 19.7568 9.014 19.2236 9.49707C18.6904 9.98014 18.0592 10.3424 17.3301 10.584L16.6738 9.55859C17.2982 9.36719 17.8428 9.08464 18.3076 8.71094C18.777 8.33268 19.1393 7.89746 19.3945 7.40527C19.6497 6.91309 19.7773 6.40039 19.7773 5.86719V5.73047H17.0293V4.67773H23.7832V5.73047H21.0898V5.86719ZM18.6973 11.1172H19.9688V12.4844H25.4238V11.1172H26.709V16.0117H18.6973V11.1172ZM25.4238 14.959V13.5098H19.9688V14.959H25.4238ZM25.4102 3.91211H26.709V10.543H25.4102V3.91211ZM39.8203 10.6387H34.8711V11.8145C36.0059 11.8783 36.8854 12.0947 37.5098 12.4639C38.1341 12.833 38.4486 13.3366 38.4531 13.9746C38.4531 14.4349 38.2845 14.8268 37.9473 15.1504C37.61 15.474 37.1247 15.7178 36.4912 15.8818C35.8577 16.0505 35.1035 16.1348 34.2285 16.1348C33.3398 16.1348 32.5765 16.0505 31.9385 15.8818C31.305 15.7178 30.8197 15.474 30.4824 15.1504C30.1452 14.8268 29.9766 14.4349 29.9766 13.9746C29.9766 13.3366 30.291 12.833 30.9199 12.4639C31.5488 12.0902 32.4375 11.8737 33.5859 11.8145V10.6387H28.6504V9.58594H39.8203V10.6387ZM29.2383 7.91797C29.9629 7.84505 30.6283 7.69238 31.2344 7.45996C31.8405 7.22754 32.3304 6.94271 32.7041 6.60547C33.0778 6.26367 33.2943 5.89909 33.3535 5.51172H29.6758V4.47266H38.8223V5.51172H35.1035C35.1628 5.90365 35.3792 6.27051 35.7529 6.6123C36.1266 6.94954 36.6165 7.23438 37.2227 7.4668C37.8333 7.69466 38.5078 7.84505 39.2461 7.91797L38.7812 8.94336C38.0703 8.86133 37.4095 8.71094 36.7988 8.49219C36.1927 8.26888 35.6686 7.98861 35.2266 7.65137C34.7845 7.31413 34.4541 6.93132 34.2354 6.50293C34.012 6.93132 33.6794 7.31413 33.2373 7.65137C32.7952 7.98861 32.2712 8.26888 31.665 8.49219C31.0589 8.71094 30.4004 8.86133 29.6895 8.94336L29.2383 7.91797ZM31.2891 13.9746C31.2845 14.3483 31.5397 14.6377 32.0547 14.8428C32.5697 15.0433 33.2943 15.1413 34.2285 15.1367C35.1491 15.1413 35.8669 15.0433 36.3818 14.8428C36.8968 14.6377 37.1543 14.3483 37.1543 13.9746C37.1543 13.5964 36.8991 13.307 36.3887 13.1064C35.8783 12.9059 35.1582 12.8034 34.2285 12.7988C33.2852 12.8034 32.5583 12.9059 32.0479 13.1064C31.5374 13.307 31.2845 13.5964 31.2891 13.9746Z" fill="#FA5A30"/>
<rect x="0.5" y="0.5" width="44" height="19" rx="3.5" stroke="#FA5A30"/>
</svg>
