<svg width="134" height="48" viewBox="0 0 134 48" fill="none" xmlns="http://www.w3.org/2000/svg">
<g clip-path="url(#clip0_1164_2988)">
<path d="M45.2188 22.1888C44.6081 18.2961 42.386 14.5357 38.5266 13.2845C35.9862 12.4636 33.1209 12.8277 30.8079 14.165C28.6898 15.3898 27.1955 17.9386 27.7152 20.3616L17.2807 25.1878C17.2807 25.1878 13.5058 21.5069 11.1798 22.6522C8.85374 23.7976 9.48397 28.7297 9.48397 28.7297C9.6529 30.4576 10.0167 32.1127 10.608 33.6221C10.9913 34.5953 11.4851 35.4824 12.0764 36.2768C14.0515 38.925 17.0987 40.5536 20.5878 41.2024C24.0963 41.8511 28.0856 41.593 32.0229 40.3086C35.8238 39.0706 39.6896 36.727 42.399 33.1587C43.6855 31.4573 44.66 29.491 45.1278 27.3858C45.4917 25.7439 45.4917 23.9432 45.2188 22.1954V22.1888Z" fill="#B8BBC0"/>
<path d="M15.9293 35.7208C15.8253 35.7208 15.7214 35.6877 15.6304 35.6148C10.0948 30.9343 9.69842 24.0889 9.68543 23.7976C9.67243 23.5394 9.86735 23.3143 10.1272 23.3011C10.3806 23.2944 10.6015 23.4864 10.6145 23.7513C10.6145 23.8175 11.0109 30.4709 16.2281 34.88C16.4231 35.0455 16.4556 35.3434 16.2866 35.5486C16.1957 35.6612 16.0592 35.7208 15.9293 35.7208Z" fill="#7A7A80"/>
<path d="M18.6971 33.0528C18.5801 33.0528 18.4567 33.0064 18.3722 32.9137C10.3416 24.731 13.0445 21.1428 13.1614 20.9972C13.3238 20.7919 13.6162 20.7655 13.8111 20.931C14.006 21.0965 14.0385 21.3878 13.8826 21.593C13.8371 21.6526 11.706 24.7972 19.0219 32.2517C19.2038 32.4371 19.2038 32.735 19.0219 32.9204C18.931 33.013 18.814 33.0594 18.6971 33.0594V33.0528Z" fill="#7A7A80"/>
<path d="M35.6614 24.9826C35.1806 23.023 33.8551 21.3017 30.8469 21.3017C27.8387 21.3017 27.4748 17.3759 27.4748 17.3759C27.3254 14.9926 27.3904 12.1525 25.8051 10.3517C24.4341 8.79597 22.6734 7.7301 20.5683 7.96181C15.7473 8.49805 12.6092 12.8079 11.0628 17.1177C10.673 18.1968 10.3611 19.2892 10.1142 20.3683C9.52946 22.9436 9.28257 25.552 9.41901 28.0213C9.36053 26.5384 9.49048 23.6917 11.1863 22.8575C13.5123 21.7122 17.2872 25.3931 17.2872 25.3931L20.8607 29.1534C20.8607 29.1534 23.3881 32.8343 28.9237 30.8681C28.9237 30.8681 32.1723 30.4973 33.3808 28.7827C33.3808 28.7827 36.1487 26.9422 35.6679 24.9826H35.6614Z" fill="#E3E5E9"/>
<path d="M29.4436 31.4242C29.4436 31.4242 29.3851 31.4242 29.3591 31.4176C29.1057 31.3712 28.9433 31.1263 28.9887 30.8681C29.1902 29.7559 29.0667 28.9151 28.6249 28.3656C28.0726 27.6837 27.163 27.6639 27.15 27.6639C26.8966 27.6639 26.6887 27.4454 26.6887 27.1872C26.6887 26.929 26.8966 26.7172 27.15 26.7172C27.202 26.7172 28.495 26.7304 29.3266 27.7499C29.9568 28.5245 30.1453 29.6301 29.8919 31.0336C29.8529 31.2587 29.658 31.4176 29.4371 31.4176L29.4436 31.4242Z" fill="#B8BBC0"/>
<path d="M33.7772 29.7889C33.7772 29.7889 33.7187 29.7889 33.6927 29.7823C33.4393 29.736 33.2769 29.491 33.3224 29.2328C33.5238 28.1206 33.4003 27.2799 32.9585 26.7304C32.4063 26.0485 31.4966 26.0286 31.4836 26.0286C31.2302 26.0286 31.0223 25.8101 31.0223 25.552C31.0223 25.2938 31.2302 25.0819 31.4836 25.0819C31.5356 25.0819 32.8221 25.0951 33.6602 26.1147C34.2904 26.8893 34.4789 27.9948 34.2255 29.3984C34.1865 29.6234 33.9916 29.7823 33.7707 29.7823L33.7772 29.7889Z" fill="#B8BBC0"/>
<path d="M55.7378 21.8314C54.7698 21.8314 53.9706 21.5136 53.3469 20.878C52.7231 20.2425 52.4113 19.4282 52.4113 18.4418V11.8744C52.4113 10.888 52.7231 10.0936 53.3469 9.49111C53.9706 8.88866 54.7698 8.59074 55.7378 8.59074H62.391C63.3591 8.59074 64.1518 8.88866 64.756 9.49111C65.3603 10.0936 65.6656 10.888 65.6656 11.8744V18.4418C65.6656 19.4282 65.3603 20.2425 64.756 20.878C64.1518 21.5136 63.3591 21.8314 62.391 21.8314H55.7378ZM56.7254 15.9525C56.7254 16.4093 56.7839 16.7933 56.9073 17.0912C57.0308 17.3891 57.3297 17.5414 57.817 17.5414H60C60.5523 17.5414 60.9096 17.3891 61.0656 17.0912C61.2215 16.7933 61.2995 16.4093 61.2995 15.9525V14.2048C61.2995 13.8142 61.2215 13.4832 61.0656 13.1985C60.9096 12.9138 60.5393 12.7748 59.9481 12.7748H57.9729C57.4856 12.7748 57.1607 12.927 56.9853 13.225C56.8099 13.5229 56.7254 13.8539 56.7254 14.2048V15.9525ZM60.3119 33.1124C60.3119 31.8082 60.6303 30.6496 61.2735 29.6433C61.9167 28.637 62.7809 27.8492 63.8724 27.2865C64.9639 26.7238 66.1529 26.4391 67.4329 26.4391C68.7128 26.4391 69.8823 26.7238 70.9414 27.2865C72.0004 27.8492 72.8581 28.637 73.5143 29.6433C74.1705 30.6496 74.5019 31.8082 74.5019 33.1124C74.5019 34.4166 74.1705 35.5818 73.5143 36.6079C72.8581 37.634 72.0004 38.4285 70.9414 38.9912C69.8823 39.5539 68.7128 39.8386 67.4329 39.8386C66.1529 39.8386 64.9639 39.5539 63.8724 38.9912C62.7809 38.4285 61.9167 37.634 61.2735 36.6079C60.6303 35.5818 60.3119 34.4166 60.3119 33.1124ZM64.73 33.1124C64.73 33.9267 64.9899 34.5622 65.5097 35.019C66.0295 35.4758 66.6727 35.7075 67.4329 35.7075C68.1931 35.7075 68.8363 35.4758 69.3561 35.019C69.8758 34.5622 70.1357 33.9267 70.1357 33.1124C70.1357 32.2981 69.8758 31.6625 69.3561 31.2057C68.8363 30.7489 68.1931 30.5172 67.4329 30.5172C66.6727 30.5172 66.0295 30.7489 65.5097 31.2057C64.9899 31.6625 64.73 32.2981 64.73 33.1124ZM75.5414 23.791C75.5414 24.4596 75.34 25.0091 74.9437 25.4328C74.5474 25.8565 74.0341 26.0684 73.4103 26.0684C72.7541 26.0684 72.2083 25.8565 71.773 25.4328C71.3377 25.0091 71.1233 24.4596 71.1233 23.791V18.2299C71.1233 17.4156 70.74 17.0118 69.9798 17.0118H68.5244C67.8682 17.0118 67.3484 16.8198 66.9651 16.4292C66.5817 16.0386 66.3933 15.5288 66.3933 14.8933C66.3933 14.3637 66.5557 13.887 66.8871 13.4633C67.2185 13.0396 67.7642 12.8277 68.5244 12.8277H69.9798C70.4671 12.8277 70.779 12.7152 70.9154 12.4835C71.0518 12.2518 71.1233 11.9075 71.1233 11.4507V9.75592C71.1233 9.57717 71.1753 9.3256 71.2792 8.98796C71.3832 8.65033 71.5976 8.32593 71.929 8.00816C72.2603 7.69038 72.7541 7.53149 73.4103 7.53149C74.0666 7.53149 74.5863 7.73672 74.9697 8.14056C75.353 8.5444 75.5414 9.08727 75.5414 9.75592V23.791Z" fill="#4E4E56"/>
<path d="M90.5631 13.7281C90.1472 13.7281 89.9913 13.973 90.0953 14.4695C90.2317 14.8204 90.641 15.2309 91.3167 15.6877C91.9924 16.1445 92.7201 16.5814 93.4998 16.9852C94.2795 17.3891 94.8252 17.7002 95.1371 17.9121C95.5529 18.1968 95.8193 18.6536 95.9428 19.2891C96.0662 19.9247 95.9363 20.4874 95.5529 20.9839C95.2086 21.4076 94.7668 21.679 94.2275 21.8048C93.6882 21.9306 93.1295 21.8115 92.5382 21.4606L89.5755 19.0773C89.0232 18.6536 88.5554 18.4417 88.1721 18.4417C87.7887 18.4417 87.3404 18.6337 86.8206 19.0243L83.7539 21.5665C83.2342 21.9174 82.6689 22.0763 82.0647 22.0432C81.4604 22.0101 80.9471 21.7585 80.5313 21.3017C80.148 20.8052 79.9661 20.2689 79.9855 19.6863C80.005 19.1037 80.2519 18.6337 80.7392 18.2828C81.2265 17.9651 81.8373 17.5877 82.5844 17.1441C83.3316 16.7006 84.0333 16.2438 84.6896 15.7671C85.3458 15.2905 85.7291 14.8601 85.8331 14.4695C85.8655 14.2908 85.8526 14.1253 85.7811 13.9664C85.7096 13.8075 85.5732 13.7281 85.3653 13.7281H82.5065C81.8113 13.7281 81.259 13.5625 80.8432 13.2249C80.4274 12.8873 80.2194 12.3841 80.2194 11.7155C80.2194 11.0799 80.4469 10.5834 80.8952 10.2325C81.3435 9.88166 81.8827 9.70291 82.5065 9.70291H85.1054C85.4497 9.70291 85.6576 9.59036 85.7291 9.35865C85.8006 9.12694 85.8331 8.94157 85.8331 8.80255V7.47848C85.8331 6.87604 86.0475 6.37289 86.4828 5.96905C86.9181 5.56521 87.4249 5.35999 88.0161 5.35999C88.6399 5.35999 89.1661 5.56521 89.6015 5.96905C90.0368 6.37289 90.2512 6.87604 90.2512 7.47848V8.74958C90.2512 8.96143 90.2967 9.17328 90.3811 9.38513C90.4656 9.59698 90.6865 9.70291 91.0309 9.70291H93.5778C94.234 9.70291 94.7668 9.88166 95.1631 10.2325C95.5594 10.5834 95.7608 11.0799 95.7608 11.7155C95.7608 12.3841 95.5594 12.8873 95.1631 13.2249C94.7668 13.5625 94.234 13.7281 93.5778 13.7281H90.5631ZM88.276 28.9283C88.276 28.2927 88.4839 27.7631 88.8998 27.3394C89.3156 26.9157 89.8549 26.7039 90.5111 26.7039C91.1023 26.7039 91.6091 26.9157 92.0444 27.3394C92.4797 27.7631 92.6941 28.2927 92.6941 28.9283V32.2649C92.6941 32.7614 92.8436 33.2249 93.136 33.6684C93.4283 34.112 93.9221 34.3305 94.6173 34.3305H100.127C100.751 34.3305 101.271 34.5224 101.686 34.913C102.102 35.3036 102.31 35.7936 102.31 36.396C102.31 37.0646 102.102 37.5943 101.686 37.9849C101.271 38.3755 100.751 38.5675 100.127 38.5675H91.6026C90.6995 38.5675 89.9198 38.2762 89.2636 37.6936C88.6074 37.111 88.276 36.3099 88.276 35.2838V28.9283ZM102.57 23.5791C102.57 24.2477 102.369 24.7972 101.972 25.2209C101.576 25.6446 101.063 25.8565 100.439 25.8565C99.8151 25.8565 99.2759 25.6446 98.8275 25.2209C98.3792 24.7972 98.1518 24.2477 98.1518 23.5791V9.64995C98.1518 9.4712 98.2103 9.21963 98.3338 8.88199C98.4572 8.54435 98.6781 8.21996 99.0095 7.90218C99.3408 7.58441 99.8151 7.42552 100.439 7.42552C101.095 7.42552 101.615 7.63075 101.998 8.03459C102.382 8.43843 102.57 8.98129 102.57 9.64995V23.5791Z" fill="#4E4E56"/>
<path d="M118.735 31.0467C118.735 31.6492 118.553 32.1656 118.189 32.6091C117.825 33.0527 117.28 33.2712 116.552 33.2712C115.896 33.2712 115.363 33.0659 114.967 32.6621C114.57 32.2583 114.369 31.7154 114.369 31.0467V29.9345C114.369 28.9481 113.921 28.4516 113.017 28.4516H109.379C108.651 28.4516 108.112 28.2397 107.768 27.816C107.423 27.3923 107.248 26.9355 107.248 26.439C107.248 25.8366 107.449 25.3467 107.846 24.9561C108.242 24.5655 108.755 24.3735 109.379 24.3735H123.777C124.433 24.3735 124.966 24.5655 125.362 24.9561C125.759 25.3467 125.96 25.8366 125.96 26.439C125.96 26.9355 125.778 27.3923 125.414 27.816C125.05 28.2397 124.505 28.4516 123.777 28.4516H120.086C119.183 28.4516 118.735 28.9613 118.735 29.9875V31.0467ZM123.361 20.3483C123.361 20.9508 123.147 21.4605 122.711 21.8842C122.276 22.3079 121.75 22.5198 121.126 22.5198C120.535 22.5198 120.041 22.3079 119.645 21.8842C119.248 21.4605 119.047 20.9508 119.047 20.3483V15.6347C119.047 14.966 118.871 14.4364 118.527 14.0458C118.183 13.6552 117.695 13.4632 117.072 13.4632H111.562C110.906 13.4632 110.367 13.2712 109.951 12.8806C109.535 12.49 109.327 11.9802 109.327 11.3447C109.327 10.676 109.535 10.153 109.951 9.7823C110.367 9.41156 110.906 9.2262 111.562 9.2262H120.086C120.99 9.2262 121.756 9.49763 122.399 10.0471C123.043 10.5966 123.361 11.4308 123.361 12.5628V20.3483Z" fill="#4E4E56"/>
</g>
<defs>
<clipPath id="clip0_1164_2988">
<rect width="116.58" height="36.18" fill="white" transform="translate(9.38 5.35999)"/>
</clipPath>
</defs>
</svg>
