<svg width="24" height="24" viewBox="0 0 24 24" fill="none" xmlns="http://www.w3.org/2000/svg">
<g clip-path="url(#clip0_1591_1080)">
<path d="M22 12.7167C22.0005 12.0651 21.9415 11.4148 21.8237 10.7734H12.6907V14.4483H17.9081C17.8001 15.0289 17.5733 15.5821 17.2414 16.0746C16.9095 16.567 16.4792 16.9885 15.9766 17.3137L19.1096 19.697C20.9426 18.0449 22 15.6118 22 12.7167Z" fill="#517BBD"/>
<path d="M12.694 22.0007C15.3117 22.0007 17.5056 21.1497 19.1097 19.6987H15.9768V17.3135C15.1085 17.8808 13.9984 18.2199 12.6966 18.2199C10.1721 18.2199 8.03488 16.5489 7.27272 14.3037L4.03369 16.7651C4.84001 18.3389 6.07694 19.662 7.60627 20.5865C9.13561 21.5111 10.8971 22.0007 12.694 22.0007Z" fill="#33A751"/>
<path d="M19.1096 19.6988L15.9761 17.3149V19.6988H19.1096Z" fill="#33A751"/>
<path d="M4.03103 8.23682C3.35305 9.56097 3 11.022 3 12.5035C3 13.985 3.35305 15.4461 4.03103 16.7702V14.3056H7.27005C6.86441 13.1349 6.86441 11.8658 7.27005 10.6951L4.03103 8.23682Z" fill="#F7BB16"/>
<path d="M4.03101 16.7666L7.26939 14.3052H4.03101V16.7666Z" fill="#F7BB16"/>
<path d="M4.03101 8.23677H7.27003V10.6951C8.03219 8.44982 10.1695 6.77882 12.6939 6.77882C14.1173 6.77882 15.3952 7.25787 16.3999 8.19958L19.1803 5.47467C17.501 3.94171 15.3071 3 12.6939 3C10.8964 2.99964 9.13429 3.48922 7.60444 4.41402C6.07459 5.33882 4.83735 6.66239 4.03101 8.23677Z" fill="#E84233"/>
<path d="M7.26939 8.2334H4.03101L7.26939 10.6948V8.2334Z" fill="#E84233"/>
</g>
<defs>
<clipPath id="clip0_1591_1080">
<rect width="19" height="19" fill="white" transform="translate(3 3)"/>
</clipPath>
</defs>
</svg>
