<svg width="24" height="24" viewBox="0 0 24 24" fill="none" xmlns="http://www.w3.org/2000/svg">
<g clip-path="url(#clip0_1591_1093)">
<path d="M9.27344 11.2412H10.5817L9.9531 9.10303L9.27344 11.2412Z" fill="#381E1E"/>
<path d="M12 1.2002C6.03618 1.2002 1.19995 5.36111 1.19995 10.4928C1.19995 13.8369 3.25073 16.7619 6.30726 18.4041C6.08333 19.3192 5.49009 21.7268 5.37223 22.2528C5.22687 22.89 5.58831 22.8815 5.82403 22.7104L9.99631 19.6485C10.6595 19.7572 11.3293 19.8115 12 19.811C17.9676 19.811 22.7999 15.6501 22.7999 10.5142C22.7999 5.37822 17.9676 1.2002 12 1.2002ZM6.71978 13.0158C6.71978 13.5889 5.54117 13.5589 5.54117 12.9859C5.54117 12.2033 5.54117 8.79505 5.54117 8.79505H4.41363C3.7536 8.79505 3.7536 7.51213 4.41363 7.51213H7.83553C8.53484 7.51213 8.53484 8.79505 7.83553 8.79505C7.46052 8.78573 7.08555 8.81581 6.71585 8.88485L6.71978 13.0158ZM11.1671 13.1869C10.8921 12.4043 10.9628 12.3658 10.9628 12.3658H8.90413L8.6802 13.2211C8.43662 13.8198 7.40337 13.3323 7.64302 12.7293C7.97303 11.8997 8.97485 8.76084 9.25379 8.098C9.31401 7.97648 9.40567 7.87686 9.51741 7.81148C9.62914 7.74611 9.75604 7.71786 9.88238 7.73023C10.0246 7.7187 10.1671 7.74635 10.2969 7.81062C10.4267 7.8749 10.5395 7.97374 10.6249 8.098C10.8253 8.55985 11.9174 11.8356 12.2357 12.7422C12.4557 13.3836 11.3871 13.8241 11.1671 13.1869ZM15.3865 13.4691H13.1275C12.5893 13.4691 12.6796 12.7892 12.6796 12.7892C12.6796 12.7892 12.6796 9.36808 12.6796 8.29044C12.7029 8.13292 12.777 7.98959 12.8886 7.88614C13.0002 7.78269 13.142 7.72587 13.2886 7.72587C13.4351 7.72587 13.5769 7.78269 13.6885 7.88614C13.8001 7.98959 13.8742 8.13292 13.8975 8.29044C13.8975 9.06018 13.8975 12.2375 13.8975 12.2375H15.3944C15.9129 12.2461 15.9169 13.4691 15.3983 13.4691H15.3865ZM19.0716 13.3751L17.5866 11.1684L17.2448 11.4678V13.127C17.2448 13.6231 16.0897 13.6231 16.0897 13.127C16.0897 12.8106 16.1172 8.5855 16.0897 8.11938C16.0897 7.86279 16.3883 7.73023 16.683 7.73023C16.9776 7.73023 17.233 7.84569 17.2369 8.08517C17.2369 8.71808 17.2369 9.86414 17.2369 9.86414C17.2369 9.86414 18.9145 8.04241 19.1502 7.78155C19.3859 7.52069 20.1599 8.3503 19.9124 8.63682C19.492 9.0944 18.4234 10.3474 18.4234 10.3474L19.9949 12.6053C20.3131 13.0287 19.3702 13.8027 19.0716 13.3751Z" fill="#381E1E"/>
</g>
<defs>
<clipPath id="clip0_1591_1093">
<rect width="21.6" height="21.6" fill="white" transform="translate(1.19995 1.2002)"/>
</clipPath>
</defs>
</svg>
