<svg width="172" height="259" viewBox="0 0 172 259" fill="none" xmlns="http://www.w3.org/2000/svg">
<g clip-path="url(#clip0_1591_1063)">
<path d="M0.827881 258.934H147.634C147.064 256.157 146.47 253.381 145.853 250.619C143.784 241.288 141.417 232.011 138.528 222.906C134.678 210.759 131.608 200.692 130.663 187.934C130.023 179.283 129.39 170.632 128.758 161.981C128.758 161.981 123.494 72.3958 123.385 70.4325C122.518 55.6333 117.692 40.1145 109.562 28.2095C100.791 15.358 84.563 6.91022 68.9437 7.98965C68.9437 7.98965 44.9212 7.41083 32.4257 25.5187C33.9408 24.7443 35.573 24.189 37.3302 23.9308C37.3302 23.9308 49.4039 18.7918 46.3972 32.4724C46.3972 32.4724 33.3004 91.2702 33.9721 118.882C34.0345 121.338 33.6987 123.559 33.0739 125.546C32.7616 134.846 32.5585 146.572 32.8553 158.359C32.8553 158.359 26.4982 202.624 21.0315 215.139C17.0173 224.338 6.25559 239.872 0.835691 258.942L0.827881 258.934Z" fill="#F2F3F6"/>
<path d="M15.705 70.9486C20.9141 61.6013 24.0458 52.8251 25.9045 42.109C27.0759 35.3117 29.4188 29.8754 32.4255 25.5186C26.1622 28.7177 21.8278 35.7419 18.743 41.6866C6.93481 64.472 1.23376 94.4849 0.265363 120.063C-0.578079 142.488 27.6148 142.747 33.0581 125.546C33.433 114.408 33.9562 106.758 33.9562 106.758C15.2833 106.758 7.27062 86.0528 15.6894 70.9486H15.705Z" fill="#E3E5E9"/>
<path d="M33.9642 118.874C33.2926 91.2622 46.3894 32.4644 46.3894 32.4644C49.4039 18.7838 37.3224 23.9228 37.3224 23.9228C35.5652 24.1809 33.9408 24.7363 32.4179 25.5107C29.4112 29.8675 27.0683 35.3038 25.8969 42.1011C24.046 52.8172 20.9065 61.5934 15.6975 70.9407C7.27866 86.0449 15.2914 106.75 33.9642 106.75C33.9642 106.75 33.4332 114.392 33.0661 125.538C33.6987 123.543 34.0267 121.322 33.9642 118.874Z" fill="#F2F3F6"/>
<path d="M27.5837 165.993L136.692 162.927L57.1198 225.347L27.5837 165.993Z" fill="#B8BBC0"/>
<path d="M38.2205 73.8974C38.2205 73.8974 33.2458 75.235 35.2607 79.2711C37.2756 83.3073 42.6564 84.6605 44.6713 84.6605C46.6862 84.6605 53.8945 82.5563 56.0031 78.223C58.1117 73.8896 51.2549 71.895 38.2127 73.8974H38.2205Z" fill="#7A7A80"/>
<path d="M103.564 32.4722C103.564 32.4722 116.661 91.27 115.989 118.882C115.317 146.493 148.93 141.777 149.602 126.962C150.274 112.147 140.191 27.9746 112.623 23.9306C112.623 23.9306 100.549 18.7916 103.556 32.4722H103.564Z" fill="#E3E5E9"/>
<path d="M70.4508 48.7345C70.4508 48.7345 68.0454 49.024 67.2489 55.8369C66.9755 58.1757 66.5694 61.3592 67.8033 63.1661C69.4512 65.5753 71.2943 63.3695 71.8878 60.5692C72.3329 58.4885 73.1451 48.4138 70.4508 48.7345Z" fill="#7A7A80"/>
<path d="M44.234 47.3888C44.234 47.3888 41.8286 47.6782 41.0321 54.4912C40.7587 56.83 40.3526 60.0135 41.5865 61.8204C43.2344 64.2296 45.0775 62.0238 45.671 59.2235C46.1161 57.1428 46.9283 47.0681 44.234 47.3888Z" fill="#7A7A80"/>
<path d="M130.421 165.118C130.421 165.118 134.342 142.418 160.028 142.536C160.028 142.536 157.841 168.763 130.421 165.118Z" fill="#B8BBC0"/>
<path d="M61.6339 98.6071C54.9644 98.6071 49.5367 94.5631 47.0767 92.373C44.1793 96.065 40.2354 97.1287 40.048 97.1835C39.2124 97.4025 38.3611 96.9019 38.1424 96.065C37.9238 95.228 38.4236 94.3754 39.2514 94.1564C39.3451 94.1329 43.2812 93.0066 45.4679 89.1816C45.7178 88.7436 46.1552 88.4542 46.655 88.3994C47.1548 88.3525 47.6468 88.5324 47.9826 88.9C48.0451 88.9626 54.082 95.4783 61.6339 95.4783C62.4929 95.4783 63.1958 96.1823 63.1958 97.0427C63.1958 97.9031 62.4929 98.6071 61.6339 98.6071Z" fill="#7A7A80"/>
</g>
<defs>
<clipPath id="clip0_1591_1063">
<rect width="171.5" height="258.078" fill="white" transform="translate(0.25 0.921875)"/>
</clipPath>
</defs>
</svg>
