<svg width="200" height="72" viewBox="0 0 200 72" fill="none" xmlns="http://www.w3.org/2000/svg">
<g clip-path="url(#clip0_1591_1113)">
<path d="M67.4908 33.1176C66.5793 27.3076 63.2628 21.6951 57.5025 19.8276C53.7108 18.6024 49.4343 19.1458 45.982 21.1418C42.8207 22.9698 40.5903 26.774 41.3661 30.3905L25.7921 37.5938C25.7921 37.5938 20.1579 32.0999 16.6863 33.8093C13.2146 35.5187 14.1552 42.8801 14.1552 42.8801C14.4074 45.4591 14.9504 47.9294 15.8329 50.1822C16.405 51.6348 17.142 52.9588 18.0245 54.1445C20.9725 58.097 25.5206 60.5277 30.7281 61.4961C35.9646 62.4644 41.9188 62.079 47.7954 60.1621C53.4684 58.3144 59.2383 54.8165 63.2822 49.4906C65.2022 46.9511 66.6568 44.0165 67.3551 40.8743C67.8981 38.4238 67.8981 35.7361 67.4908 33.1275V33.1176Z" fill="#FA5A30"/>
<path d="M23.7749 53.3145C23.6198 53.3145 23.4646 53.2651 23.3288 53.1564C15.0667 46.1705 14.4751 35.9534 14.4557 35.5187C14.4364 35.1333 14.7273 34.7974 15.1152 34.7776C15.4934 34.7677 15.8231 35.0543 15.8425 35.4495C15.8425 35.5483 16.434 45.4788 24.221 52.0596C24.5119 52.3066 24.5604 52.7512 24.3083 53.0576C24.1725 53.2255 23.9689 53.3145 23.7749 53.3145Z" fill="#AF2E10"/>
<path d="M27.9061 49.3322C27.7316 49.3322 27.5473 49.263 27.4213 49.1247C15.4353 36.9117 19.4694 31.5561 19.644 31.3388C19.8864 31.0324 20.3228 30.9929 20.6137 31.2399C20.9046 31.487 20.9531 31.9217 20.7204 32.2281C20.6525 32.317 17.4718 37.0105 28.391 48.1366C28.6625 48.4132 28.6625 48.8579 28.391 49.1346C28.2552 49.2729 28.0807 49.3421 27.9061 49.3421V49.3322Z" fill="#AF2E10"/>
<path d="M53.2259 37.2874C52.5083 34.3626 50.53 31.7935 46.0401 31.7935C41.5502 31.7935 41.0072 25.934 41.0072 25.934C40.7841 22.3768 40.8811 18.1379 38.5149 15.4502C36.4688 13.1282 33.8408 11.5373 30.6989 11.8832C23.5034 12.6835 18.8196 19.1161 16.5116 25.5487C15.9298 27.1593 15.4643 28.7896 15.0958 30.4003C14.223 34.244 13.8545 38.1371 14.0582 41.8228C13.9709 39.6094 14.1648 35.3606 16.6959 34.1155C20.1675 32.4061 25.8017 37.9 25.8017 37.9L31.1352 43.5124C31.1352 43.5124 34.9075 49.0063 43.1697 46.0716C43.1697 46.0716 48.0184 45.5183 49.8221 42.9591C49.8221 42.9591 53.9532 40.2122 53.2356 37.2874H53.2259Z" fill="#FCD147"/>
<path d="M43.9454 46.9014C43.9454 46.9014 43.8582 46.9014 43.8194 46.8915C43.4412 46.8224 43.1987 46.4568 43.2666 46.0714C43.5672 44.4114 43.383 43.1565 42.7236 42.3364C41.8993 41.3186 40.5416 41.289 40.5223 41.289C40.1441 41.289 39.8337 40.9629 39.8337 40.5775C39.8337 40.1922 40.1441 39.876 40.5223 39.876C40.5998 39.876 42.5296 39.8957 43.7709 41.4174C44.7115 42.5735 44.9927 44.2236 44.6145 46.3184C44.5564 46.6544 44.2654 46.8915 43.9357 46.8915L43.9454 46.9014Z" fill="#FA5A30"/>
<path d="M50.4137 44.461C50.4137 44.461 50.3264 44.461 50.2876 44.4511C49.9094 44.3819 49.667 44.0163 49.7349 43.631C50.0355 41.971 49.8512 40.7161 49.1918 39.8959C48.3675 38.8782 47.0099 38.8485 46.9905 38.8485C46.6123 38.8485 46.302 38.5225 46.302 38.1371C46.302 37.7517 46.6123 37.4355 46.9905 37.4355C47.0681 37.4355 48.9882 37.4553 50.2391 38.977C51.1798 40.1331 51.461 41.7832 51.0828 43.878C51.0246 44.214 50.7337 44.4511 50.404 44.4511L50.4137 44.461Z" fill="#FA5A30"/>
<path d="M83.1909 32.5843C81.746 32.5843 80.5532 32.11 79.6222 31.1614C78.6913 30.2129 78.2258 28.9975 78.2258 27.5252V17.7232C78.2258 16.2509 78.6913 15.0652 79.6222 14.166C80.5532 13.2668 81.746 12.8222 83.1909 12.8222H93.121C94.5659 12.8222 95.749 13.2668 96.6508 14.166C97.5527 15.0652 98.0085 16.2509 98.0085 17.7232V27.5252C98.0085 28.9975 97.5527 30.2129 96.6508 31.1614C95.749 32.11 94.5659 32.5843 93.121 32.5843H83.1909ZM84.6649 23.8099C84.6649 24.4917 84.7522 25.0648 84.9364 25.5095C85.1207 25.9541 85.5667 26.1814 86.294 26.1814H89.5524C90.3766 26.1814 90.91 25.9541 91.1427 25.5095C91.3755 25.0648 91.4918 24.4917 91.4918 23.8099V21.2013C91.4918 20.6183 91.3755 20.1243 91.1427 19.6994C90.91 19.2745 90.3572 19.067 89.4748 19.067H86.5268C85.7995 19.067 85.3146 19.2943 85.0528 19.7389C84.7909 20.1836 84.6649 20.6776 84.6649 21.2013V23.8099ZM90.0178 49.4216C90.0178 47.4751 90.493 45.7459 91.453 44.244C92.4131 42.742 93.7028 41.5662 95.332 40.7263C96.9612 39.8864 98.7358 39.4615 100.646 39.4615C102.557 39.4615 104.302 39.8864 105.883 40.7263C107.463 41.5662 108.743 42.742 109.723 44.244C110.702 45.7459 111.197 47.4751 111.197 49.4216C111.197 51.3682 110.702 53.1073 109.723 54.6388C108.743 56.1704 107.463 57.3561 105.883 58.196C104.302 59.0359 102.557 59.4608 100.646 59.4608C98.7358 59.4608 96.9612 59.0359 95.332 58.196C93.7028 57.3561 92.4131 56.1704 91.453 54.6388C90.493 53.1073 90.0178 51.3682 90.0178 49.4216ZM96.6121 49.4216C96.6121 50.637 96.9999 51.5856 97.7757 52.2674C98.5515 52.9492 99.5116 53.295 100.646 53.295C101.781 53.295 102.741 52.9492 103.517 52.2674C104.292 51.5856 104.68 50.637 104.68 49.4216C104.68 48.2063 104.292 47.2577 103.517 46.5759C102.741 45.8941 101.781 45.5483 100.646 45.5483C99.5116 45.5483 98.5515 45.8941 97.7757 46.5759C96.9999 47.2577 96.6121 48.2063 96.6121 49.4216ZM112.748 35.5091C112.748 36.5071 112.448 37.3272 111.856 37.9596C111.265 38.592 110.499 38.9082 109.568 38.9082C108.588 38.9082 107.774 38.592 107.124 37.9596C106.474 37.3272 106.154 36.5071 106.154 35.5091V27.209C106.154 25.9936 105.582 25.3909 104.448 25.3909H102.275C101.296 25.3909 100.52 25.1043 99.9479 24.5214C99.3758 23.9384 99.0946 23.1775 99.0946 22.229C99.0946 21.4385 99.337 20.727 99.8316 20.0946C100.326 19.4623 101.141 19.1461 102.275 19.1461H104.448C105.175 19.1461 105.64 18.9781 105.844 18.6322C106.048 18.2864 106.154 17.7726 106.154 17.0908V14.5612C106.154 14.2945 106.232 13.919 106.387 13.415C106.542 12.9111 106.862 12.4269 107.357 11.9526C107.851 11.4784 108.588 11.2412 109.568 11.2412C110.547 11.2412 111.323 11.5475 111.895 12.1503C112.467 12.753 112.748 13.5633 112.748 14.5612V35.5091Z" fill="#473020"/>
<path d="M135.169 20.4897C134.548 20.4897 134.315 20.8553 134.471 21.5963C134.674 22.12 135.285 22.7327 136.294 23.4145C137.302 24.0962 138.388 24.7484 139.552 25.3511C140.716 25.9539 141.53 26.4183 141.996 26.7345C142.616 27.1594 143.014 27.8412 143.198 28.7898C143.383 29.7383 143.189 30.5782 142.616 31.3193C142.102 31.9517 141.443 32.3568 140.638 32.5446C139.833 32.7323 138.999 32.5544 138.117 32.0307L133.695 28.4736C132.871 27.8412 132.172 27.525 131.6 27.525C131.028 27.525 130.359 27.8115 129.583 28.3945L125.006 32.1888C124.23 32.7125 123.387 32.9497 122.485 32.9003C121.583 32.8509 120.817 32.4754 120.196 31.7936C119.624 31.0525 119.352 30.2521 119.382 29.3826C119.411 28.5131 119.779 27.8115 120.506 27.2878C121.234 26.8135 122.145 26.2503 123.26 25.5883C124.376 24.9263 125.423 24.2445 126.402 23.533C127.382 22.8216 127.954 22.1793 128.109 21.5963C128.158 21.3296 128.138 21.0825 128.032 20.8454C127.925 20.6082 127.721 20.4897 127.411 20.4897H123.144C122.106 20.4897 121.282 20.2426 120.662 19.7387C120.041 19.2348 119.731 18.4838 119.731 17.4858C119.731 16.5372 120.07 15.7962 120.739 15.2725C121.408 14.7488 122.213 14.482 123.144 14.482H127.023C127.537 14.482 127.847 14.314 127.954 13.9682C128.061 13.6223 128.109 13.3457 128.109 13.1382V11.1619C128.109 10.2628 128.429 9.5118 129.079 8.90906C129.729 8.30631 130.485 8 131.367 8C132.298 8 133.084 8.30631 133.734 8.90906C134.383 9.5118 134.703 10.2628 134.703 11.1619V13.0591C134.703 13.3753 134.771 13.6915 134.897 14.0077C135.023 14.3239 135.353 14.482 135.867 14.482H139.668C140.648 14.482 141.443 14.7488 142.035 15.2725C142.626 15.7962 142.927 16.5372 142.927 17.4858C142.927 18.4838 142.626 19.2348 142.035 19.7387C141.443 20.2426 140.648 20.4897 139.668 20.4897H135.169ZM131.755 43.1766C131.755 42.228 132.066 41.4375 132.686 40.8051C133.307 40.1727 134.112 39.8565 135.091 39.8565C135.974 39.8565 136.73 40.1727 137.38 40.8051C138.03 41.4375 138.35 42.228 138.35 43.1766V48.1566C138.35 48.8977 138.573 49.5894 139.009 50.2514C139.445 50.9134 140.182 51.2395 141.22 51.2395H149.443C150.374 51.2395 151.15 51.5261 151.771 52.1091C152.391 52.692 152.702 53.4232 152.702 54.3224C152.702 55.3204 152.391 56.1109 151.771 56.6939C151.15 57.2768 150.374 57.5634 149.443 57.5634H136.72C135.372 57.5634 134.209 57.1286 133.229 56.2591C132.25 55.3896 131.755 54.194 131.755 52.6624V43.1766ZM153.09 35.1927C153.09 36.1907 152.789 37.0108 152.197 37.6432C151.606 38.2756 150.84 38.5918 149.909 38.5918C148.978 38.5918 148.173 38.2756 147.504 37.6432C146.835 37.0108 146.495 36.1907 146.495 35.1927V14.4029C146.495 14.1361 146.583 13.7607 146.767 13.2567C146.951 12.7528 147.281 12.2686 147.775 11.7943C148.27 11.32 148.978 11.0829 149.909 11.0829C150.888 11.0829 151.664 11.3892 152.236 11.9919C152.808 12.5947 153.09 13.4049 153.09 14.4029V35.1927Z" fill="#473020"/>
<path d="M177.217 46.3385C177.217 47.2377 176.945 48.0084 176.402 48.6704C175.859 49.3324 175.045 49.6585 173.958 49.6585C172.979 49.6585 172.184 49.3522 171.592 48.7495C171.001 48.1467 170.7 47.3365 170.7 46.3385V44.6785C170.7 43.2062 170.031 42.4651 168.683 42.4651H163.253C162.166 42.4651 161.362 42.1489 160.848 41.5165C160.334 40.8841 160.072 40.2023 160.072 39.4613C160.072 38.5621 160.372 37.8309 160.964 37.2479C161.555 36.6649 162.322 36.3784 163.253 36.3784H184.742C185.721 36.3784 186.517 36.6649 187.108 37.2479C187.7 37.8309 188 38.5621 188 39.4613C188 40.2023 187.729 40.8841 187.186 41.5165C186.643 42.1489 185.828 42.4651 184.742 42.4651H179.234C177.886 42.4651 177.217 43.226 177.217 44.7575V46.3385ZM184.121 30.3707C184.121 31.2699 183.801 32.0307 183.152 32.6631C182.502 33.2955 181.716 33.6117 180.785 33.6117C179.903 33.6117 179.166 33.2955 178.574 32.6631C177.983 32.0307 177.682 31.2699 177.682 30.3707V23.3354C177.682 22.3374 177.42 21.5469 176.906 20.9639C176.392 20.3809 175.665 20.0944 174.734 20.0944H166.511C165.531 20.0944 164.727 19.8078 164.106 19.2249C163.485 18.6419 163.175 17.881 163.175 16.9324C163.175 15.9345 163.485 15.1539 164.106 14.6005C164.727 14.0472 165.531 13.7705 166.511 13.7705H179.234C180.582 13.7705 181.726 14.1756 182.686 14.9958C183.646 15.8159 184.121 17.0609 184.121 18.7506V30.3707Z" fill="#473020"/>
</g>
<defs>
<clipPath id="clip0_1591_1113">
<rect width="174" height="54" fill="white" transform="translate(14 8)"/>
</clipPath>
</defs>
</svg>
