<svg width="22" height="21" viewBox="0 0 22 21" fill="none" xmlns="http://www.w3.org/2000/svg">
<g clip-path="url(#clip0_2645_1048)">
<path d="M4.36017 16.1601C6.06844 17.3507 8.15654 17.8678 10.223 17.612C12.2895 17.3562 14.1885 16.3455 15.5548 14.7742C16.9212 13.203 17.6585 11.1822 17.625 9.10018C17.5915 7.0182 16.7896 5.02209 15.3734 3.49562C13.9572 1.96914 12.0267 1.02006 9.95308 0.830836C7.87945 0.641615 5.80908 1.22562 4.13999 2.47055C2.4709 3.71549 1.32091 5.53349 0.911151 7.57502C0.501388 9.61654 0.860767 11.7375 1.92018 13.5301L0.860172 16.8501L4.36017 16.1601Z" stroke="black" stroke-width="1.5" stroke-linecap="round" stroke-linejoin="round"/>
<path d="M6.1001 9.91992C6.51431 9.91992 6.8501 9.58414 6.8501 9.16992C6.8501 8.75571 6.51431 8.41992 6.1001 8.41992C5.68588 8.41992 5.3501 8.75571 5.3501 9.16992C5.3501 9.58414 5.68588 9.91992 6.1001 9.91992Z" fill="black"/>
<path d="M9.22021 9.91992C9.63443 9.91992 9.97021 9.58414 9.97021 9.16992C9.97021 8.75571 9.63443 8.41992 9.22021 8.41992C8.806 8.41992 8.47021 8.75571 8.47021 9.16992C8.47021 9.58414 8.806 9.91992 9.22021 9.91992Z" fill="black"/>
<path d="M12.3501 9.91992C12.7643 9.91992 13.1001 9.58414 13.1001 9.16992C13.1001 8.75571 12.7643 8.41992 12.3501 8.41992C11.9359 8.41992 11.6001 8.75571 11.6001 9.16992C11.6001 9.58414 11.9359 9.91992 12.3501 9.91992Z" fill="black"/>
<path d="M10.1802 17.7998C10.288 18.0256 10.4373 18.2291 10.6202 18.3998C11.7474 19.3333 13.157 19.8584 14.6202 19.8898C15.7985 19.9172 16.9625 19.627 17.9902 19.0498L20.5602 19.7198L19.9602 17.3298C20.6643 16.3789 21.0557 15.2328 21.0802 14.0498C21.095 13.0629 20.862 12.0881 20.4025 11.2146C19.9431 10.341 19.2718 9.59672 18.4502 9.0498C18.2658 8.91932 18.0535 8.83371 17.8302 8.7998" stroke="black" stroke-width="1.5" stroke-linecap="round" stroke-linejoin="round"/>
</g>
<defs>
<clipPath id="clip0_2645_1048">
<rect width="21.83" height="20.64" fill="white"/>
</clipPath>
</defs>
</svg>
