<svg width="100" height="36" viewBox="0 0 100 36" fill="none" xmlns="http://www.w3.org/2000/svg">
<g clip-path="url(#clip0_1164_3203)">
<path d="M33.7454 16.5588C33.2896 13.6538 31.6314 10.8476 28.7513 9.91381C26.8554 9.30118 24.7171 9.57291 22.991 10.5709C21.4103 11.4849 20.2951 13.387 20.683 15.1952L12.896 18.7969C12.896 18.7969 10.079 16.0499 8.34313 16.9047C6.6073 17.7594 7.07762 21.4401 7.07762 21.4401C7.20369 22.7295 7.47522 23.9647 7.91645 25.0911C8.20252 25.8174 8.57102 26.4794 9.01225 27.0723C10.4863 29.0485 12.7603 30.2639 15.364 30.748C17.9823 31.2322 20.9594 31.0395 23.8977 30.0811C26.7342 29.1572 29.6192 27.4082 31.6411 24.7453C32.6011 23.4756 33.3284 22.0082 33.6775 20.4371C33.9491 19.2119 33.9491 17.8681 33.7454 16.5638V16.5588Z" fill="#FA5A30"/>
<path d="M11.8875 26.6572C11.8099 26.6572 11.7323 26.6325 11.6644 26.5782C7.53334 23.0852 7.23757 17.9767 7.22787 17.7593C7.21818 17.5667 7.36364 17.3987 7.55759 17.3888C7.74668 17.3839 7.91154 17.5271 7.92124 17.7248C7.92124 17.7742 8.21701 22.7394 12.1105 26.0298C12.256 26.1533 12.2802 26.3756 12.1541 26.5288C12.0863 26.6128 11.9844 26.6572 11.8875 26.6572Z" fill="#AF2E10"/>
<path d="M13.9531 24.6662C13.8658 24.6662 13.7737 24.6316 13.7106 24.5625C7.71766 18.456 9.73471 15.7782 9.82199 15.6695C9.94321 15.5163 10.1614 15.4966 10.3069 15.6201C10.4523 15.7436 10.4766 15.961 10.3602 16.1141C10.3263 16.1586 8.73588 18.5054 14.1955 24.0684C14.3313 24.2067 14.3313 24.4291 14.1955 24.5674C14.1276 24.6366 14.0403 24.6711 13.9531 24.6711V24.6662Z" fill="#AF2E10"/>
<path d="M26.6129 18.6437C26.2541 17.1813 25.265 15.8967 23.0201 15.8967C20.7751 15.8967 20.5036 12.967 20.5036 12.967C20.3921 11.1884 20.4406 9.06893 19.2575 7.72511C18.2344 6.56408 16.9204 5.76866 15.3494 5.94158C11.7517 6.34176 9.40979 9.55804 8.2558 12.7743C7.96488 13.5796 7.73214 14.3948 7.54789 15.2001C7.11151 17.122 6.92726 19.0686 7.02908 20.9114C6.98545 19.8047 7.08242 17.6803 8.34793 17.0578C10.0838 16.2031 12.9008 18.95 12.9008 18.95L15.5676 21.7562C15.5676 21.7562 17.4538 24.5031 21.5848 23.0358C21.5848 23.0358 24.0092 22.7591 24.911 21.4795C24.911 21.4795 26.9766 20.1061 26.6178 18.6437H26.6129Z" fill="#FCD147"/>
<path d="M21.9727 23.4508C21.9727 23.4508 21.9291 23.4508 21.9097 23.4459C21.7206 23.4113 21.5994 23.2285 21.6333 23.0358C21.7836 22.2058 21.6915 21.5784 21.3618 21.1683C20.9496 20.6594 20.2708 20.6446 20.2611 20.6446C20.072 20.6446 19.9169 20.4816 19.9169 20.2889C19.9169 20.0962 20.072 19.9381 20.2611 19.9381C20.2999 19.9381 21.2648 19.948 21.8854 20.7088C22.3558 21.2869 22.4964 22.1119 22.3073 23.1593C22.2782 23.3273 22.1327 23.4459 21.9679 23.4459L21.9727 23.4508Z" fill="#FA5A30"/>
<path d="M25.2068 22.2305C25.2068 22.2305 25.1632 22.2305 25.1438 22.2255C24.9547 22.191 24.8335 22.0082 24.8674 21.8155C25.0177 20.9855 24.9256 20.358 24.5959 19.948C24.1838 19.4391 23.505 19.4243 23.4953 19.4243C23.3062 19.4243 23.151 19.2612 23.151 19.0686C23.151 18.8759 23.3062 18.7178 23.4953 18.7178C23.534 18.7178 24.4941 18.7277 25.1196 19.4885C25.5899 20.0665 25.7305 20.8916 25.5414 21.939C25.5123 22.107 25.3669 22.2255 25.202 22.2255L25.2068 22.2305Z" fill="#FA5A30"/>
<path d="M41.5954 16.292C40.873 16.292 40.2766 16.0549 39.8111 15.5806C39.3456 15.1063 39.1129 14.4986 39.1129 13.7625V8.86147C39.1129 8.12533 39.3456 7.53247 39.8111 7.08288C40.2766 6.63329 40.873 6.41097 41.5954 6.41097H46.5605C47.283 6.41097 47.8745 6.63329 48.3254 7.08288C48.7763 7.53247 49.0042 8.12533 49.0042 8.86147V13.7625C49.0042 14.4986 48.7763 15.1063 48.3254 15.5806C47.8745 16.0549 47.283 16.292 46.5605 16.292H41.5954ZM42.3324 11.9048C42.3324 12.2457 42.3761 12.5323 42.4682 12.7546C42.5603 12.9769 42.7834 13.0906 43.147 13.0906H44.7762C45.1883 13.0906 45.455 12.9769 45.5714 12.7546C45.6877 12.5323 45.7459 12.2457 45.7459 11.9048V10.6005C45.7459 10.309 45.6877 10.062 45.5714 9.84958C45.455 9.63714 45.1786 9.53338 44.7374 9.53338H43.2634C42.8997 9.53338 42.6573 9.64702 42.5264 9.86934C42.3955 10.0917 42.3324 10.3387 42.3324 10.6005V11.9048ZM45.0089 24.7107C45.0089 23.7374 45.2465 22.8728 45.7265 22.1219C46.2065 21.3709 46.8514 20.783 47.666 20.363C48.4806 19.9431 49.3679 19.7306 50.3231 19.7306C51.2783 19.7306 52.151 19.9431 52.9414 20.363C53.7317 20.783 54.3717 21.3709 54.8615 22.1219C55.3512 22.8728 55.5985 23.7374 55.5985 24.7107C55.5985 25.684 55.3512 26.5535 54.8615 27.3193C54.3717 28.0851 53.7317 28.6779 52.9414 29.0979C52.151 29.5178 51.2783 29.7303 50.3231 29.7303C49.3679 29.7303 48.4806 29.5178 47.666 29.0979C46.8514 28.6779 46.2065 28.0851 45.7265 27.3193C45.2465 26.5535 45.0089 25.684 45.0089 24.7107ZM48.306 24.7107C48.306 25.3184 48.5 25.7927 48.8879 26.1336C49.2758 26.4745 49.7558 26.6474 50.3231 26.6474C50.8904 26.6474 51.3704 26.4745 51.7583 26.1336C52.1462 25.7927 52.3401 25.3184 52.3401 24.7107C52.3401 24.103 52.1462 23.6287 51.7583 23.2878C51.3704 22.9469 50.8904 22.774 50.3231 22.774C49.7558 22.774 49.2758 22.9469 48.8879 23.2878C48.5 23.6287 48.306 24.103 48.306 24.7107ZM56.3742 17.7544C56.3742 18.2534 56.2239 18.6635 55.9282 18.9797C55.6324 19.2959 55.2493 19.454 54.7839 19.454C54.2942 19.454 53.8869 19.2959 53.562 18.9797C53.2371 18.6635 53.0771 18.2534 53.0771 17.7544V13.6044C53.0771 12.9967 52.7911 12.6953 52.2238 12.6953H51.1377C50.6479 12.6953 50.26 12.552 49.974 12.2606C49.6879 11.9691 49.5473 11.5886 49.5473 11.1144C49.5473 10.7191 49.6685 10.3634 49.9158 10.0472C50.1631 9.731 50.5704 9.57291 51.1377 9.57291H52.2238C52.5874 9.57291 52.8202 9.48892 52.922 9.316C53.0238 9.14308 53.0771 8.88617 53.0771 8.54528V7.2805C53.0771 7.14711 53.1159 6.95937 53.1935 6.7074C53.2711 6.45543 53.4311 6.21335 53.6784 5.9762C53.9257 5.73906 54.2942 5.62048 54.7839 5.62048C55.2736 5.62048 55.6615 5.77364 55.9476 6.07501C56.2336 6.37638 56.3742 6.78151 56.3742 7.2805V17.7544Z" fill="#473020"/>
<path d="M67.5844 10.2448C67.2741 10.2448 67.1577 10.4276 67.2353 10.7982C67.3371 11.06 67.6426 11.3663 68.1469 11.7072C68.6511 12.0481 69.1942 12.3742 69.776 12.6756C70.3579 12.9769 70.7652 13.2091 70.9979 13.3672C71.3082 13.5797 71.507 13.9206 71.5991 14.3949C71.6913 14.8692 71.5943 15.2891 71.3082 15.6597C71.0512 15.9758 70.7215 16.1784 70.3191 16.2723C69.9166 16.3661 69.4996 16.2772 69.0584 16.0154L66.8474 14.2368C66.4353 13.9206 66.0862 13.7625 65.8001 13.7625C65.514 13.7625 65.1795 13.9058 64.7916 14.1973L62.503 16.0944C62.1151 16.3563 61.6933 16.4748 61.2423 16.4501C60.7914 16.4254 60.4084 16.2377 60.098 15.8968C59.812 15.5263 59.6762 15.1261 59.6908 14.6913C59.7053 14.2565 59.8896 13.9058 60.2532 13.6439C60.6169 13.4068 61.0726 13.1252 61.6302 12.7941C62.1878 12.4631 62.7115 12.1222 63.2012 11.7665C63.6909 11.4108 63.977 11.0897 64.0546 10.7982C64.0788 10.6648 64.0691 10.5413 64.0158 10.4227C63.9624 10.3041 63.8606 10.2448 63.7055 10.2448H61.572C61.0532 10.2448 60.6411 10.1213 60.3308 9.86935C60.0205 9.61738 59.8653 9.2419 59.8653 8.74291C59.8653 8.26862 60.035 7.89808 60.3696 7.63623C60.7041 7.37438 61.1066 7.24099 61.572 7.24099H63.5115C63.7685 7.24099 63.9237 7.157 63.977 6.98408C64.0303 6.81116 64.0546 6.67283 64.0546 6.56908V5.58097C64.0546 5.13138 64.2146 4.7559 64.5394 4.45453C64.8643 4.15316 65.2425 4 65.6837 4C66.1492 4 66.5419 4.15316 66.8668 4.45453C67.1917 4.7559 67.3517 5.13138 67.3517 5.58097V6.52955C67.3517 6.68765 67.3856 6.84575 67.4487 7.00384C67.5117 7.16194 67.6765 7.24099 67.9335 7.24099H69.8342C70.3239 7.24099 70.7215 7.37438 71.0173 7.63623C71.3131 7.89808 71.4634 8.26862 71.4634 8.74291C71.4634 9.2419 71.3131 9.61738 71.0173 9.86935C70.7215 10.1213 70.3239 10.2448 69.8342 10.2448H67.5844ZM65.8777 21.5883C65.8777 21.114 66.0328 20.7188 66.3432 20.4026C66.6535 20.0864 67.0559 19.9283 67.5456 19.9283C67.9869 19.9283 68.3651 20.0864 68.6899 20.4026C69.0148 20.7188 69.1748 21.114 69.1748 21.5883V24.0783C69.1748 24.4489 69.2863 24.7947 69.5045 25.1257C69.7227 25.4567 70.0912 25.6198 70.61 25.6198H74.7217C75.1872 25.6198 75.5751 25.763 75.8854 26.0545C76.1957 26.346 76.3508 26.7116 76.3508 27.1612C76.3508 27.6602 76.1957 28.0554 75.8854 28.3469C75.5751 28.6384 75.1872 28.7817 74.7217 28.7817H68.3602C67.6862 28.7817 67.1044 28.5643 66.6147 28.1296C66.125 27.6948 65.8777 27.097 65.8777 26.3312V21.5883ZM76.5448 17.5963C76.5448 18.0953 76.3945 18.5054 76.0987 18.8216C75.8029 19.1378 75.4199 19.2959 74.9544 19.2959C74.4889 19.2959 74.0865 19.1378 73.7519 18.8216C73.4174 18.5054 73.2477 18.0953 73.2477 17.5963V7.20146C73.2477 7.06807 73.2913 6.88033 73.3834 6.62836C73.4756 6.3764 73.6404 6.13431 73.8877 5.89716C74.135 5.66002 74.4889 5.54145 74.9544 5.54145C75.4441 5.54145 75.832 5.6946 76.1181 5.99597C76.4042 6.29735 76.5448 6.70247 76.5448 7.20146V17.5963Z" fill="#473020"/>
<path d="M88.6084 23.1692C88.6084 23.6188 88.4726 24.0042 88.2011 24.3352C87.9296 24.6662 87.5223 24.8293 86.9792 24.8293C86.4895 24.8293 86.0919 24.6761 85.7961 24.3747C85.5004 24.0734 85.35 23.6682 85.35 23.1692V22.3392C85.35 21.6031 85.0155 21.2326 84.3415 21.2326H81.6263C81.0832 21.2326 80.6808 21.0745 80.4238 20.7583C80.1668 20.4421 80.0359 20.1012 80.0359 19.7306C80.0359 19.281 80.1862 18.9154 80.482 18.624C80.7777 18.3325 81.1608 18.1892 81.6263 18.1892H92.371C92.8607 18.1892 93.2583 18.3325 93.554 18.624C93.8498 18.9154 94.0001 19.281 94.0001 19.7306C94.0001 20.1012 93.8643 20.4421 93.5928 20.7583C93.3213 21.0745 92.914 21.2326 92.371 21.2326H89.6169C88.9429 21.2326 88.6084 21.613 88.6084 22.3788V23.1692ZM92.0606 15.1853C92.0606 15.6349 91.9006 16.0154 91.5758 16.3315C91.2509 16.6477 90.8582 16.8058 90.3927 16.8058C89.9515 16.8058 89.583 16.6477 89.2872 16.3315C88.9914 16.0154 88.8411 15.6349 88.8411 15.1853V11.6677C88.8411 11.1687 88.7102 10.7735 88.4532 10.482C88.1962 10.1905 87.8326 10.0472 87.3671 10.0472H83.2554C82.7657 10.0472 82.3633 9.90392 82.0529 9.61243C81.7426 9.32094 81.5875 8.94051 81.5875 8.46622C81.5875 7.96723 81.7426 7.57693 82.0529 7.30026C82.3633 7.02359 82.7657 6.88525 83.2554 6.88525H89.6169C90.2909 6.88525 90.863 7.08782 91.343 7.49788C91.823 7.90794 92.0606 8.53045 92.0606 9.37528V15.1853Z" fill="#473020"/>
</g>
<defs>
<clipPath id="clip0_1164_3203">
<rect width="87" height="27" fill="white" transform="translate(7 4)"/>
</clipPath>
</defs>
</svg>
