<svg width="24" height="24" viewBox="0 0 24 24" fill="none" xmlns="http://www.w3.org/2000/svg">
<path d="M18.8001 8.97995C18.8002 7.18604 18.0903 5.46501 16.8256 4.19278C15.5608 2.92055 13.844 2.20051 12.0501 2.18994C10.2262 2.20841 8.48353 2.94731 7.20218 4.24551C5.92084 5.54371 5.20478 7.29591 5.21015 9.11995C5.21015 13.3499 4.21017 15.5699 3.29017 17.0599C3.18088 17.234 3.12113 17.4346 3.11738 17.6401C3.11363 17.8457 3.166 18.0483 3.26886 18.2263C3.37173 18.4042 3.52119 18.5508 3.70115 18.6501C3.8811 18.7494 4.08477 18.7978 4.29017 18.7899H19.7802C19.9843 18.7944 20.1859 18.7439 20.3639 18.6437C20.5418 18.5436 20.6897 18.3975 20.7918 18.2207C20.894 18.0439 20.9469 17.8429 20.9448 17.6387C20.9427 17.4345 20.8859 17.2346 20.7802 17.0599C19.8602 15.5599 18.8601 13.3 18.8601 8.97995" stroke="#121212" stroke-width="1.5" stroke-linejoin="round"/>
<path d="M15.1998 18.6599C15.1998 19.5086 14.8627 20.3226 14.2625 20.9227C13.6624 21.5228 12.8485 21.8599 11.9998 21.8599C11.1511 21.8599 10.3372 21.5228 9.73706 20.9227C9.13694 20.3226 8.7998 19.5086 8.7998 18.6599" stroke="#121212" stroke-width="1.5" stroke-linejoin="round"/>
<ellipse rx="2" ry="2" transform="matrix(1 0 0 -1 21 2)" fill="#121212"/>
</svg>
