<svg width="24" height="25" viewBox="0 0 24 25" fill="none" xmlns="http://www.w3.org/2000/svg">
<path d="M18.7999 9.97995C18.7999 8.18604 18.0901 6.46501 16.8253 5.19278C15.5606 3.92055 13.8438 3.20051 12.0499 3.18994C10.2259 3.20841 8.48328 3.94731 7.20194 5.24551C5.9206 6.54371 5.20453 8.29591 5.2099 10.1199C5.2099 14.3499 4.20992 16.5699 3.28992 18.0599C3.18063 18.234 3.12088 18.4346 3.11713 18.6401C3.11338 18.8457 3.16575 19.0483 3.26862 19.2263C3.37149 19.4042 3.52094 19.5508 3.7009 19.6501C3.88086 19.7494 4.08452 19.7978 4.28992 19.7899H19.7799C19.9841 19.7944 20.1857 19.7439 20.3636 19.6437C20.5416 19.5436 20.6894 19.3975 20.7916 19.2207C20.8938 19.0439 20.9466 18.8429 20.9446 18.6387C20.9425 18.4345 20.8856 18.2346 20.7799 18.0599C19.8599 16.5599 18.8599 14.3 18.8599 9.97995" stroke="black" stroke-width="1.5" stroke-linejoin="round"/>
<path d="M15.2 19.6599C15.2 20.5086 14.8629 21.3226 14.2628 21.9227C13.6627 22.5228 12.8488 22.8599 12.0001 22.8599C11.1514 22.8599 10.3374 22.5228 9.7373 21.9227C9.13719 21.3226 8.80005 20.5086 8.80005 19.6599" stroke="black" stroke-width="1.5" stroke-linejoin="round"/>
<path d="M23 2.82567C23 1.7285 22.1046 0.839076 21 0.839076C19.8954 0.839076 19 1.7285 19 2.82567C19 3.92283 19.8954 4.81226 21 4.81226C22.1046 4.81226 23 3.92283 23 2.82567Z" fill="#FA5A30"/>
</svg>
