<svg width="104" height="40" viewBox="0 0 104 40" fill="none" xmlns="http://www.w3.org/2000/svg">
<rect x="0.5" y="0.5" width="103" height="39" rx="3.5" fill="white" stroke="#E3E5E9"/>
<path d="M41.7031 17.0293C41.6986 17.7448 41.8262 18.4535 42.0859 19.1553C42.3457 19.8571 42.7103 20.486 43.1797 21.042C43.6491 21.5934 44.1823 22.015 44.7793 22.3066L43.9727 23.3457C43.3164 22.9993 42.7354 22.5049 42.2295 21.8623C41.7282 21.2152 41.3408 20.4769 41.0674 19.6475C40.7894 20.5316 40.3883 21.32 39.8643 22.0127C39.3447 22.7008 38.7409 23.2227 38.0527 23.5781L37.2461 22.5254C37.8613 22.2292 38.4082 21.7917 38.8867 21.2129C39.3652 20.6341 39.7367 19.9779 40.001 19.2441C40.2699 18.5104 40.4043 17.7721 40.4043 17.0293V14.9375H41.7031V17.0293ZM45.6953 13.9121H46.9941V18.793H48.9629V19.9004H46.9941V26.1621H45.6953V13.9121ZM54.0898 16.4688C54.0898 16.9974 54.2129 17.5055 54.459 17.9932C54.7096 18.4808 55.0651 18.9137 55.5254 19.292C55.9902 19.6657 56.5326 19.9505 57.1523 20.1465L56.4824 21.1582C55.7852 20.9303 55.1768 20.5863 54.6572 20.126C54.1377 19.6657 53.7367 19.1257 53.4541 18.5059C53.1761 19.1803 52.7705 19.7682 52.2373 20.2695C51.7041 20.7708 51.0775 21.1491 50.3574 21.4043L49.6875 20.3789C50.3118 20.1647 50.8564 19.8594 51.3213 19.4629C51.7861 19.0618 52.1439 18.6016 52.3945 18.082C52.6497 17.5625 52.7773 17.0247 52.7773 16.4688V15.9355H50.0293V14.8828H56.7832V15.9355H54.0898V16.4688ZM51.6973 22.0195H53.0098V24.8496H60.0781V25.9023H51.6973V22.0195ZM58.4102 13.9258H59.709V22.8672H58.4102V13.9258ZM72.8203 22.3613H67.8711V26.1758H66.5859V22.3613H61.6504V21.2949H72.8203V22.3613ZM62.3066 19.4082C63.0677 19.3125 63.7695 19.1165 64.4121 18.8203C65.0592 18.5241 65.5765 18.1663 65.9639 17.7471C66.3512 17.3278 66.5586 16.8926 66.5859 16.4414H62.7031V15.3887H66.5859V13.9121H67.8711V15.3887H71.7539V16.4414H67.8848C67.9076 16.888 68.1104 17.321 68.4932 17.7402C68.876 18.1595 69.3864 18.5195 70.0244 18.8203C70.667 19.1165 71.3711 19.3125 72.1367 19.4082L71.6719 20.4473C70.6875 20.3105 69.8011 20.0257 69.0127 19.5928C68.2243 19.1553 67.6318 18.6243 67.2354 18C66.8389 18.6289 66.2464 19.1598 65.458 19.5928C64.6696 20.0257 63.7786 20.3105 62.7852 20.4473L62.3066 19.4082ZM83.293 18.793H85.1934V19.873H83.293V26.1484H81.9941V13.9121H83.293V18.793ZM73.7637 22.8809C75.2949 22.1152 76.4775 21.181 77.3115 20.0781C78.1501 18.9753 78.6354 17.7083 78.7676 16.2773H74.3789V15.1973H80.0938C80.0846 17.0658 79.6312 18.7451 78.7334 20.2354C77.8356 21.721 76.4206 22.9401 74.4883 23.8926L73.7637 22.8809Z" fill="black"/>
<path d="M30.7343 13.6359H20.2638C19.9089 13.6359 19.6211 13.93 19.6211 14.2929V25.707C19.6211 26.0699 19.9089 26.3641 20.2638 26.3641H30.7343C31.0893 26.3641 31.3771 26.0699 31.3771 25.707V14.2929C31.3771 13.93 31.0893 13.6359 30.7343 13.6359Z" stroke="black" stroke-width="1.2" stroke-linejoin="round"/>
<path d="M19.6641 23.9583L23.5102 19.9523L28.4862 26.3853" stroke="black" stroke-width="1.2" stroke-linejoin="round"/>
<path d="M27.0352 24.9228L29.2537 22.3369L31.3789 24.9228" stroke="black" stroke-width="1.2" stroke-linejoin="round"/>
<path d="M27.8124 18.8077C28.4994 18.8077 29.0564 18.2383 29.0564 17.5359C29.0564 16.8335 28.4994 16.2642 27.8124 16.2642C27.1253 16.2642 26.5684 16.8335 26.5684 17.5359C26.5684 18.2383 27.1253 18.8077 27.8124 18.8077Z" stroke="black" stroke-width="1.2" stroke-linejoin="round"/>
</svg>
