<svg width="57" height="20" viewBox="0 0 57 20" fill="none" xmlns="http://www.w3.org/2000/svg">
<rect width="57" height="20" rx="4" fill="#FBF1E8"/>
<path d="M14.0762 3.91211H12.7773V10.4199H14.0762V7.72656H15.8535V6.67383H14.0762V3.91211ZM4.46484 9.59961L5.01172 10.6523C8.65527 9.87305 10.7676 7.88379 10.7676 4.75977H5.01172V5.79883H9.33203C9.1543 7.53516 7.54785 8.97754 4.46484 9.59961ZM6.21484 16.0117H14.4043V15.0273H7.51367V13.9199H13.9941V12.9766H7.51367V11.9238H14.1309V10.9395H6.21484V16.0117ZM26.6953 3.91211H25.3965V16.1895H26.6953V3.91211ZM16.9746 9.12109C16.9746 11.7666 18.2939 13.4346 20.1465 13.4277C21.9648 13.4346 23.3047 11.7666 23.3047 9.12109C23.3047 6.50293 21.9648 4.83496 20.1465 4.82812C18.2939 4.83496 16.9746 6.50293 16.9746 9.12109ZM18.2324 9.12109C18.2256 7.2002 19.0049 5.99707 20.1465 5.99023C21.2676 5.99707 22.0469 7.2002 22.0469 9.12109C22.0469 11.0693 21.2676 12.2656 20.1465 12.2656C19.0049 12.2656 18.2256 11.0693 18.2324 9.12109ZM34.707 5.93555H32.3145V4.26758H31.0293V5.93555H28.623V6.98828H34.707V5.93555ZM29.0195 10.543C29.0127 12.2178 30.1338 13.3936 31.6719 13.3867C33.2236 13.3936 34.3311 12.2178 34.3379 10.543C34.3311 8.89551 33.2236 7.72656 31.6719 7.72656C30.1338 7.72656 29.0127 8.89551 29.0195 10.543ZM30.168 10.543C30.1611 9.52441 30.79 8.81348 31.6719 8.80664C32.5537 8.81348 33.1895 9.52441 33.1895 10.543C33.1895 11.582 32.5537 12.2793 31.6719 12.2793C30.79 12.2793 30.1611 11.582 30.168 10.543ZM35.2676 15.5879H36.498V10.0781H37.9062V16.1621H39.1367V3.91211H37.9062V9.01172H36.498V4.18555H35.2676V15.5879ZM51.9609 13.5508H49.2812V10.3242C50.2656 9.77051 50.8535 8.90234 50.8535 7.82227C50.8535 5.89453 48.96 4.62988 46.3281 4.62305C43.7031 4.62988 41.8096 5.89453 41.8164 7.82227C41.8096 8.92285 42.4248 9.79785 43.4297 10.3516V13.5508H40.75V14.6309H51.9609V13.5508ZM43.0742 7.82227C43.0742 6.50293 44.4072 5.66211 46.3281 5.66211C48.2354 5.66211 49.5889 6.50293 49.5957 7.82227C49.5889 9.13477 48.2354 9.98926 46.3281 9.99609C44.4072 9.98926 43.0742 9.13477 43.0742 7.82227ZM44.7148 13.5508V10.8301C45.207 10.9463 45.7539 11.0078 46.3281 11.0078C46.916 11.0078 47.4697 10.9463 47.9688 10.8301V13.5508H44.7148Z" fill="#F67452"/>
</svg>
