<svg width="57" height="20" viewBox="0 0 57 20" fill="none" xmlns="http://www.w3.org/2000/svg">
<rect width="57" height="20" rx="4" fill="#E9EAFF"/>
<path d="M15.6484 11.1172H4.4375V12.1426H9.37305V16.1621H10.6445V12.1426H15.6484V11.1172ZM5.83203 9.72266H14.2402V4.4043H12.9414V6.00391H7.11719V4.4043H5.83203V9.72266ZM7.11719 8.68359V7.04297H12.9414V8.68359H7.11719ZM22.7715 4.73242H17.084V10.7207H18.041C20.5566 10.7344 21.999 10.6729 23.6738 10.3789L23.5371 9.33984C21.9717 9.61328 20.6318 9.68164 18.3828 9.68164V8.20508H22.5391V7.19336H18.3828V5.78516H22.7715V4.73242ZM18.082 12.9492H24.877V16.1621H26.1758V11.8965H18.082V12.9492ZM24.877 11.3359H26.1758V8.17773H27.9531V7.08398H26.1758V3.91211H24.877V11.3359ZM34.707 5.93555H32.3145V4.26758H31.0293V5.93555H28.623V6.98828H34.707V5.93555ZM29.0195 10.543C29.0127 12.2178 30.1338 13.3936 31.6719 13.3867C33.2236 13.3936 34.3311 12.2178 34.3379 10.543C34.3311 8.89551 33.2236 7.72656 31.6719 7.72656C30.1338 7.72656 29.0127 8.89551 29.0195 10.543ZM30.168 10.543C30.1611 9.52441 30.79 8.81348 31.6719 8.80664C32.5537 8.81348 33.1895 9.52441 33.1895 10.543C33.1895 11.582 32.5537 12.2793 31.6719 12.2793C30.79 12.2793 30.1611 11.582 30.168 10.543ZM35.2676 15.5879H36.498V10.0781H37.9062V16.1621H39.1367V3.91211H37.9062V9.01172H36.498V4.18555H35.2676V15.5879ZM51.9609 13.5508H49.2812V10.3242C50.2656 9.77051 50.8535 8.90234 50.8535 7.82227C50.8535 5.89453 48.96 4.62988 46.3281 4.62305C43.7031 4.62988 41.8096 5.89453 41.8164 7.82227C41.8096 8.92285 42.4248 9.79785 43.4297 10.3516V13.5508H40.75V14.6309H51.9609V13.5508ZM43.0742 7.82227C43.0742 6.50293 44.4072 5.66211 46.3281 5.66211C48.2354 5.66211 49.5889 6.50293 49.5957 7.82227C49.5889 9.13477 48.2354 9.98926 46.3281 9.99609C44.4072 9.98926 43.0742 9.13477 43.0742 7.82227ZM44.7148 13.5508V10.8301C45.207 10.9463 45.7539 11.0078 46.3281 11.0078C46.916 11.0078 47.4697 10.9463 47.9688 10.8301V13.5508H44.7148Z" fill="#4F65FF"/>
</svg>
